<?xml version="1.0" standalone="no"?>
<!DOCTYPE svg PUBLIC "-//W3C//DTD SVG 1.1//EN" "http://www.w3.org/Graphics/SVG/1.1/DTD/svg11.dtd" >
<svg xmlns="http://www.w3.org/2000/svg" xmlns:xlink="http://www.w3.org/1999/xlink" version="1.1">
<metadata>
Created by FontForge 20170731 at Sun Jan 22 11:04:21 2006
 By Aleksey,,,
Copyright (C) 1996-2005, Hoefler &#38; Frere-Jones, Inc. www.typography.com
</metadata>
<defs>
<font id="MercuryDisplay-Roman" horiz-adv-x="500" >
  <font-face 
    font-family="Mercury Display"
    font-weight="400"
    font-stretch="normal"
    units-per-em="1000"
    panose-1="2 0 5 3 8 0 0 2 0 3"
    ascent="800"
    descent="-200"
    x-height="448"
    cap-height="637"
    bbox="-71 -266 968 891"
    underline-thickness="28"
    underline-position="-142"
    unicode-range="U+0020-FB02"
  />
<missing-glyph 
 />
    <glyph glyph-name=".notdef" 
 />
    <glyph glyph-name=".null" horiz-adv-x="0" 
 />
    <glyph glyph-name="nonmarkingreturn" horiz-adv-x="230" 
 />
    <glyph glyph-name="space" unicode=" " horiz-adv-x="230" 
 />
    <glyph glyph-name="exclam" unicode="!" horiz-adv-x="268" 
d="M191 589q0 31 -15.5 47t-40.5 16q-24 0 -40 -16t-16 -47q0 -20 4 -63t10.5 -99.5t14.5 -122t16 -129.5h22q8 64 16 129.5t14.5 122t10.5 99.5t4 63zM194 45q0 25 -17.5 42.5t-42.5 17.5t-42.5 -17.5t-17.5 -42.5t17.5 -42.5t42.5 -17.5t42.5 17.5t17.5 42.5z" />
    <glyph glyph-name="quotedbl" unicode="&#x22;" horiz-adv-x="313" 
d="M287 619q0 16 -12 24.5t-24 8.5q-22 0 -34 -28q-2 -5 -4 -12.5t-5 -19.5t-7 -30t-10 -46l-15 -73l12 -5l39 64q15 24 24.5 40t16 26.5t10 17.5t5.5 12t3 10.5t1 10.5zM159 619q0 16 -12 24.5t-24 8.5q-22 0 -34 -28q-2 -5 -4 -12.5t-5 -19.5t-6.5 -30t-9.5 -46l-16 -73
l12 -5l39 64l25 40t16 26.5t9.5 17.5t5.5 12t3 10.5t1 10.5z" />
    <glyph glyph-name="numbersign" unicode="#" horiz-adv-x="581" 
d="M536 372v33h-114l45 151l-34 10l-45 -161h-137l45 151l-34 10l-45 -161h-141v-33h132l-17 -63l-23 -77h-123v-33h113l-42 -143l35 -10l41 153h137l-42 -143l35 -10l41 153h142v33h-133l19 69l21 71h124zM379 372l-17 -63l-23 -77h-138l19 69l21 71h138z" />
    <glyph glyph-name="dollar" unicode="$" horiz-adv-x="547" 
d="M477 183q0 42 -16.5 71t-43 49.5t-59.5 35t-65 28.5l18 222q32 -13 63 -46.5t60 -93.5l17 3l-4 151q-23 9 -60 15.5t-73 8.5l6 67l-37 5l-5 -71q-45 -2 -82 -16.5t-63.5 -40t-40.5 -59t-14 -72.5q0 -40 15.5 -67.5t41 -47t56.5 -33t63 -26.5l-1.5 -18t-3.5 -45.5
t-5 -59.5t-5 -59.5t-4 -46l-2 -18.5q-45 14 -87 57t-70 118l-17 -2l10 -171q41 -18 79.5 -26t82.5 -10l-7 -80l37 -4l5 84q46 2 85 16t67 39.5t43.5 61.5t15.5 81zM276 598l-14 -217q-21 9 -39 20t-31.5 24.5t-21 31t-7.5 39.5q0 56 32.5 81.5t80.5 20.5zM391 138
q0 -60 -32.5 -93.5t-90.5 -31.5l16 241q22 -9 41.5 -20t34 -24.5t23 -31t8.5 -40.5z" />
    <glyph glyph-name="percent" unicode="%" horiz-adv-x="746" 
d="M365 460q0 35 -10 65.5t-30 53t-50 35.5t-70 13q-41 0 -73 -14t-53.5 -37t-33 -54t-11.5 -64q0 -35 10 -66t30.5 -53.5t50.5 -35.5t70 -13q41 0 72.5 14t53.5 38t33 54.5t11 63.5zM126 -12l29 -20l230 329l235 325l-29 21l-230 -329zM712 154q0 35 -10 65.5t-30 53
t-50 35.5t-70 13q-41 0 -72.5 -14t-53 -37t-33 -54t-11.5 -64q0 -35 10 -66t30 -53.5t50 -35.5t70 -13q41 0 72.5 14t53.5 38t33 54.5t11 63.5zM287 460q0 -76 -22.5 -113.5t-63.5 -37.5q-38 0 -64 36.5t-26 111.5t24.5 113t62.5 38q40 0 64.5 -37t24.5 -111zM459 151
q0 75 24 113t62 38q41 0 65.5 -37t24.5 -111q0 -76 -23 -113.5t-63 -37.5q-38 0 -64 36.5t-26 111.5z" />
    <glyph glyph-name="ampersand" unicode="&#x26;" horiz-adv-x="695" 
d="M683 340h-182v-10l53 -29l-86 -155l-153 203l30 19q57 36 82 69.5t25 68.5q0 22 -9 43.5t-27.5 39t-46 28.5t-63.5 11q-31 0 -60.5 -9.5t-53 -27.5t-37.5 -44t-14 -59q0 -29 13.5 -63t44.5 -71l-36 -18q-55 -27 -92.5 -73t-37.5 -109q0 -36 14.5 -67t40.5 -53.5
t62.5 -35.5t80.5 -13q54 0 95.5 21t88.5 61q30 -40 59.5 -61t64.5 -21q37 0 68.5 14t61.5 36l-4 11q-13 -1 -23 -1.5t-29 -0.5q-17 0 -32 3.5t-30 12.5t-31.5 25t-36.5 40l133 177l67 25v13zM370 511q0 -38 -15 -72t-52 -73l-32 44q-25 35 -35.5 58.5t-10.5 48.5
q0 42 19 64.5t51 22.5q33 0 54 -26.5t21 -66.5zM401 84q-30 -14 -60 -22.5t-65 -8.5q-64 0 -105.5 33.5t-41.5 91.5q0 45 20 81.5t45 61.5l18 18z" />
    <glyph glyph-name="quotesingle" unicode="'" horiz-adv-x="185" 
d="M159 619q0 16 -12 24.5t-24 8.5q-22 0 -34 -28q-2 -5 -4 -12.5t-5 -19.5t-6.5 -30t-9.5 -46l-16 -73l12 -5l39 64l25 40t16 26.5t9.5 17.5t5.5 12t3 10.5t1 10.5z" />
    <glyph glyph-name="parenleft" unicode="(" horiz-adv-x="341" 
d="M133 282q0 79 17.5 149t49 127.5t75.5 100t98 66.5l-6 16q-58 -20 -113 -61t-98.5 -100.5t-70 -134.5t-26.5 -163t26.5 -163t70 -134.5t98.5 -100.5t113 -60l6 16q-54 24 -98 66.5t-75.5 100t-49 127.5t-17.5 148z" />
    <glyph glyph-name="parenright" unicode=")" horiz-adv-x="341" 
d="M282 282q0 88 -26.5 163t-70 134.5t-98.5 100.5t-113 61l-6 -16q54 -24 98 -66.5t75.5 -100t49 -127.5t17.5 -149q0 -78 -17.5 -148t-49 -127.5t-75.5 -100t-98 -66.5l6 -16q58 19 113 60t98.5 100.5t70 134.5t26.5 163z" />
    <glyph glyph-name="asterisk" unicode="*" horiz-adv-x="345" 
d="M310 424q-2 11 -7.5 21.5t-24.5 21.5q-12 7 -30.5 14t-47.5 13v5q29 7 47.5 13.5t30.5 13.5q19 11 24.5 22t7.5 21l-6 11q-10 3 -22 3.5t-31 -10.5q-12 -7 -27.5 -19.5t-35.5 -34.5l-4 2q9 29 12.5 48.5t3.5 33.5q0 21 -6.5 31.5t-14.5 17.5h-12q-8 -7 -15 -17.5
t-7 -31.5q0 -27 16 -82l-4 -2q-20 22 -35.5 34.5t-27.5 19.5q-18 11 -30.5 10.5t-22.5 -3.5l-6 -11q2 -10 7.5 -21t24.5 -22q12 -7 31 -13.5t48 -13.5v-5q-29 -6 -48 -13t-31 -14q-19 -11 -24.5 -21.5t-7.5 -21.5l6 -10q10 -3 22.5 -4t30.5 10q12 7 27.5 20t35.5 34l4 -2
q-9 -28 -12.5 -47.5t-3.5 -33.5q0 -22 7 -32t15 -18h12q8 8 14.5 18t6.5 32q0 14 -3.5 33.5t-12.5 47.5l4 2q39 -41 63 -54q19 -11 31 -10t23 4z" />
    <glyph glyph-name="plus" unicode="+" horiz-adv-x="505" 
d="M464 284v45h-188v187h-46v-187h-189v-45h189v-190h46v190h188z" />
    <glyph glyph-name="comma" unicode="," horiz-adv-x="232" 
d="M185 21q0 37 -18.5 60t-50.5 23q-26 0 -43 -18t-17 -43q0 -22 13.5 -36.5t34.5 -14.5q10 0 15 2l17 4l2 -1q-6 -22 -23.5 -48t-59.5 -61l10 -12q62 30 91 68.5t29 76.5z" />
    <glyph glyph-name="hyphen" unicode="-" horiz-adv-x="336" 
d="M286 206v57h-236v-57h236z" />
    <glyph glyph-name="period" unicode="." horiz-adv-x="211" 
d="M166 44q0 25 -17.5 42.5t-42.5 17.5q-26 0 -43.5 -17.5t-17.5 -42.5t17.5 -42.5t43.5 -17.5q25 0 42.5 17.5t17.5 42.5z" />
    <glyph glyph-name="slash" unicode="/" horiz-adv-x="385" 
d="M429 727l-33 14l-200 -470l-206 -466l33 -15l200 470z" />
    <glyph glyph-name="zero" unicode="0" horiz-adv-x="562" 
d="M521 306q0 68 -14.5 126.5t-44 102t-74 68.5t-104.5 25q-57 0 -102 -25t-76.5 -68.5t-48.5 -102t-17 -126.5t14.5 -126.5t44 -101.5t74 -68t104.5 -25q57 0 102 25t76.5 68t48.5 101.5t17 126.5zM417 306q0 -78 -10.5 -134.5t-28.5 -92.5t-41 -53.5t-48 -17.5
q-29 0 -55 13.5t-46 47.5t-32 91.5t-12 145.5t10.5 145.5t28.5 91.5t41 47.5t48 13.5q28 0 54.5 -17t46.5 -53.5t32 -93t12 -134.5z" />
    <glyph glyph-name="one" unicode="1" horiz-adv-x="384" 
d="M244 49v569l-5 3l-197 -33v-12l112 -41v-486l-111 -33v-16h312v16z" />
    <glyph glyph-name="two" unicode="2" horiz-adv-x="513" 
d="M329 423q0 -49 -21 -100t-72 -114q-37 -45 -91 -95t-125 -102l6 -12h396l40 166l-10 3l-87 -90h-216l-2 3q147 109 215 203.5t68 163.5q0 39 -11.5 71.5t-34 56.5t-55 37.5t-73.5 13.5q-27 0 -55 -9.5t-54.5 -27t-48.5 -43.5t-37 -59l8 -11q38 38 74.5 55t73.5 17
q54 0 83 -35t29 -92z" />
    <glyph glyph-name="three" unicode="3" horiz-adv-x="483" 
d="M430 177q0 26 -8.5 52t-27 48t-47 38.5t-68.5 25.5v7q56 25 91 64t35 89q0 23 -9 45.5t-27.5 40.5t-47 29.5t-67.5 11.5q-29 0 -56.5 -9.5t-52 -25t-46 -36.5t-39.5 -44l10 -11q39 25 72 38.5t70 13.5q50 0 78.5 -24.5t28.5 -62.5q0 -22 -7.5 -43t-27 -41.5t-55 -40.5
t-90.5 -39v-12q54 -4 93 -17t63.5 -33.5t36 -47t11.5 -58.5q0 -56 -31.5 -90.5t-81.5 -34.5q-43 0 -75 26q9 45 -9.5 73t-50.5 28q-24 0 -39.5 -16t-15.5 -41q0 -41 47.5 -68t127.5 -27q45 0 84 15t68 41.5t46 61.5t17 74z" />
    <glyph glyph-name="four" unicode="4" horiz-adv-x="546" 
d="M506 192v64h-123v365l-13 6l-336 -417l8 -18h252v-143l-106 -33v-16h299v16l-104 33v143h123zM294 256h-184l182 226h2v-226z" />
    <glyph glyph-name="five" unicode="5" horiz-adv-x="493" 
d="M441 196q0 89 -60 139.5t-169 50.5q-25 0 -44.5 -2t-43.5 -6l-4 3l19 147h267l21 123l-11 3l-41 -42h-258l-36 -319l5 -4q28 8 50 11.5t47 3.5q39 0 70.5 -11.5t53.5 -31.5t34 -47.5t12 -60.5q0 -36 -9.5 -62.5t-25.5 -44.5t-37 -27t-43 -9q-45 0 -77 26q9 45 -9.5 73
t-50.5 28q-24 0 -39.5 -16t-15.5 -41q0 -20 12.5 -37.5t35.5 -30.5t55 -20t70 -7q45 0 85.5 16.5t71 45t48 67t17.5 82.5z" />
    <glyph glyph-name="six" unicode="6" horiz-adv-x="517" 
d="M475 215q0 35 -12 68t-35 59t-57 41.5t-77 15.5q-32 0 -65 -11.5t-61 -32.5l-5 1q17 44 41.5 83.5t59.5 74.5q34 34 77 61t90 47l-5 17q-41 -9 -76.5 -22t-67 -30t-60 -38.5t-56.5 -48.5q-63 -60 -92 -133t-29 -149q0 -59 18 -102.5t48 -72.5t69 -43.5t81 -14.5
q49 0 88.5 18t67.5 49t43 73t15 90zM385 172q0 -72 -29 -118t-83 -46q-30 0 -55 18t-42.5 47.5t-27 67.5t-9.5 77q0 31 5 61t12 50q21 9 40.5 13.5t45.5 4.5q37 0 64 -13.5t44.5 -36.5t26 -55.5t8.5 -69.5z" />
    <glyph glyph-name="seven" unicode="7" horiz-adv-x="472" 
d="M390 528l-163 -299l-144 -244h76l305 620l-4 7h-350l-23 24l-9 -3l-27 -161l10 -3l51 59h278z" />
    <glyph glyph-name="eight" unicode="8" horiz-adv-x="496" 
d="M436 484q0 28 -11.5 54t-34 46t-55.5 32t-77 12q-36 0 -69.5 -12.5t-60 -34.5t-42.5 -53t-16 -67q0 -57 31 -96.5t88 -74.5q-28 -11 -52.5 -27t-42.5 -37t-28.5 -45.5t-10.5 -52.5q0 -29 13 -55t37 -45.5t59 -31t79 -11.5q45 0 82 12.5t64 35.5t42 56t15 74
q0 48 -33.5 86.5t-105.5 80.5q66 29 97.5 69t31.5 85zM156 502q0 47 28 74.5t71 27.5q24 0 42 -9t30 -24.5t18 -36t6 -42.5q0 -42 -15 -78t-48 -73q-36 20 -61 38t-40.5 36.5t-23 39.5t-7.5 47zM358 118q0 -51 -27 -80.5t-68 -29.5q-28 0 -50.5 10.5t-38.5 28.5t-24.5 42
t-8.5 51q0 49 17.5 81.5t46.5 58.5q76 -37 114.5 -75.5t38.5 -86.5z" />
    <glyph glyph-name="nine" unicode="9" horiz-adv-x="516" 
d="M471 394q0 54 -15.5 97.5t-44 74t-68 46.5t-87.5 16q-49 0 -88.5 -18t-67.5 -48.5t-43 -71t-15 -85.5q0 -41 15 -74.5t41 -57.5t61 -37t75 -13q32 0 62.5 11.5t55.5 32.5l5 -1q-17 -44 -43 -88.5t-61 -79.5q-34 -34 -78 -61t-98 -47l5 -16q89 18 151 51.5t118 86.5
q63 60 91.5 133t28.5 149zM377 395q0 -32 -4 -57t-10 -45q-22 -9 -39 -13.5t-43 -4.5q-75 0 -111 45.5t-36 120.5q0 72 30.5 117.5t84.5 45.5q28 0 51.5 -17t40.5 -45.5t26.5 -66.5t9.5 -80z" />
    <glyph glyph-name="colon" unicode=":" horiz-adv-x="211" 
d="M165 341q0 25 -17.5 42.5t-42.5 17.5t-42.5 -17.5t-17.5 -42.5t17.5 -42.5t42.5 -17.5t42.5 17.5t17.5 42.5zM165 44q0 25 -17.5 42.5t-42.5 17.5t-42.5 -17.5t-17.5 -42.5t17.5 -42.5t42.5 -17.5t42.5 17.5t17.5 42.5z" />
    <glyph glyph-name="semicolon" unicode=";" horiz-adv-x="232" 
d="M184 341q0 25 -17.5 42.5t-42.5 17.5t-42.5 -17.5t-17.5 -42.5t17.5 -42.5t42.5 -17.5t42.5 17.5t17.5 42.5zM184 21q0 37 -18.5 60t-50.5 23q-26 0 -43 -18t-17 -43q0 -22 13.5 -36.5t34.5 -14.5q10 0 15 2l17 4l2 -1q-6 -22 -23.5 -48t-59.5 -61l10 -12q62 30 91 68.5
t29 76.5z" />
    <glyph glyph-name="less" unicode="&#x3c;" horiz-adv-x="505" 
d="M430 156l-298 150l298 151l-10 44l-350 -181v-27l350 -181z" />
    <glyph glyph-name="equal" unicode="=" horiz-adv-x="505" 
d="M464 414h-423v-44h423v44zM464 198v44h-423v-44h423z" />
    <glyph glyph-name="greater" unicode="&#x3e;" horiz-adv-x="505" 
d="M75 457l298 -150l-298 -151l10 -44l350 181v27l-350 181z" />
    <glyph glyph-name="question" unicode="?" horiz-adv-x="393" 
d="M369 489q0 33 -13.5 62.5t-37.5 52t-57.5 35.5t-73.5 13q-32 0 -59.5 -7t-47.5 -19.5t-31.5 -29.5t-11.5 -38q0 -26 17 -43t40 -17q25 0 40 16.5t15 41.5q0 11 -3 24t-11 26q21 22 58 22q47 0 72.5 -29t25.5 -71q0 -44 -25.5 -71.5t-74.5 -54.5q-56 -32 -82 -61.5
t-26 -71.5q0 -22 9.5 -40t26 -30.5t37.5 -19t44 -6.5t45.5 7.5t34.5 19.5l-5 11q-11 -2 -25 -4.5t-30 -2.5q-27 0 -44 14.5t-17 37.5q0 26 20 43t70 42q62 31 91 65t29 83zM238 45q0 25 -17.5 42.5t-42.5 17.5t-42.5 -17.5t-17.5 -42.5t17.5 -42.5t42.5 -17.5t42.5 17.5
t17.5 42.5z" />
    <glyph glyph-name="at" unicode="@" horiz-adv-x="820" 
d="M722 285q0 -53 -11 -96.5t-31 -74t-48.5 -47t-64.5 -16.5q-16 0 -25 6.5t-13.5 17.5t-4.5 24q0 14 3 28l57 308l-5 3l-34 -29q-18 10 -31.5 13.5t-30.5 3.5q-50 0 -94 -23t-77 -59.5t-52 -82.5t-19 -92q0 -34 8.5 -60t22.5 -43t32.5 -26t38.5 -9q32 0 61 18t52 45l3 -2
q0 -27 23 -48t68 -21t87.5 22t74.5 60t51.5 88.5t19.5 108.5t-23 113.5t-65.5 98.5t-104 69.5t-138.5 26.5q-87 0 -163 -32t-132 -86.5t-88 -126.5t-32 -151q0 -92 31 -161.5t83.5 -117t121.5 -71.5t144 -24q78 0 146 25t116 67l-6 8q-49 -24 -103.5 -38t-123.5 -14
q-80 0 -143 24.5t-106.5 67.5t-66.5 101t-23 126q0 84 23.5 151.5t65.5 115.5t99 73.5t125 25.5q72 0 128 -25t94.5 -65.5t59 -92t20.5 -105.5zM503 348l-40 -233q-16 -14 -33.5 -25t-40.5 -11q-38 0 -58 30t-20 78q0 43 10 80t26 64t36.5 42.5t41.5 15.5q24 0 43.5 -12
t34.5 -29z" />
    <glyph glyph-name="A" unicode="A" horiz-adv-x="629" 
d="M563 40l-231 603h-47l-230 -599l-71 -27v-17h181v17l-72 24l72 193h219l74 -199l-99 -18v-17h285v17zM371 267h-194l96 258h2z" />
    <glyph glyph-name="B" unicode="B" horiz-adv-x="626" 
d="M584 183q0 27 -11 53t-34 47.5t-58 36.5t-83 20v5q75 16 109.5 57t34.5 92q0 30 -13.5 56t-40 45.5t-66 30.5t-91.5 11h-296v-17l100 -18v-567l-100 -18v-17h322q54 0 96 15t71.5 40t44.5 58t15 70zM235 346v259q14 3 34 4.5t41 1.5q24 0 47 -7t41 -22t29 -39.5t11 -60.5
q0 -66 -32 -101t-89 -35h-82zM470 175q0 -69 -36.5 -109t-116.5 -40q-22 0 -45 2t-37 5v285h78q83 0 120 -39.5t37 -103.5z" />
    <glyph glyph-name="C" unicode="C" horiz-adv-x="655" 
d="M607 170l-9 4l-113 -141q-32 -14 -78 -14q-51 0 -97 19.5t-80 58.5t-54 97t-20 135q0 78 16.5 133.5t43.5 91.5t60 52.5t66 16.5q37 0 69 -10t60.5 -32t54 -57t50.5 -85l16 2l-8 214h-11l-43 -34q-29 15 -69 23t-78 8q-74 0 -137 -27t-109 -73.5t-71.5 -108.5t-25.5 -131
q0 -74 25 -134.5t70 -103t108 -66t138 -23.5q34 0 61.5 3.5t52 10t47 16.5t46.5 23z" />
    <glyph glyph-name="D" unicode="D" horiz-adv-x="731" 
d="M135 602v-567l-99 -18v-17h301q78 0 143.5 24.5t112 67t72.5 101t26 126.5q0 67 -23.5 125.5t-68.5 101t-109.5 67t-146.5 24.5h-307v-17zM576 319q0 -78 -17.5 -132.5t-48 -88.5t-73 -49.5t-92.5 -15.5h-110v571h88q53 0 99.5 -15.5t80.5 -49.5t53.5 -88t19.5 -132z" />
    <glyph glyph-name="E" unicode="E" horiz-adv-x="641" 
d="M537 637h-501v-17l99 -18v-567l-99 -18v-17h544l27 195l-10 4l-87 -112q-11 -14 -19.5 -24t-19 -16.5t-25 -9.5t-36.5 -3h-175v273h53q45 0 66 -21.5t35 -73.5l9 -31h15v281h-15l-9 -33q-7 -26 -15 -44t-19.5 -29t-28 -16t-38.5 -5h-53v269h129q23 0 38.5 -4t27 -11.5
t21.5 -18.5t24 -26l77 -85l9 7z" />
    <glyph glyph-name="F" unicode="F" horiz-adv-x="585" 
d="M562 466l-24 171h-502v-17l99 -18v-567l-99 -18v-17h305v17l-105 18v268h59q45 0 66 -21t35 -73l9 -31h15v281h-15l-9 -33q-7 -26 -15 -44.5t-19.5 -29.5t-28 -16t-38.5 -5h-59v273h128q24 0 39 -4t27 -11.5t22 -18.5t23 -26l77 -85z" />
    <glyph glyph-name="G" unicode="G" horiz-adv-x="686" 
d="M588 441l-7 214h-11l-44 -34q-29 15 -67.5 23t-76.5 8q-74 0 -136.5 -27t-108.5 -73.5t-71.5 -108.5t-25.5 -131q0 -72 23 -132.5t64.5 -103.5t99 -67t125.5 -24q50 0 92 14t77 37l74 -48l10 4v246l73 18v17h-259v-17l86 -18v-184q-24 -12 -53 -20.5t-61 -8.5
q-51 0 -94.5 19t-75 56.5t-49 94.5t-17.5 134q0 78 16.5 133.5t44 91.5t62 52.5t70.5 16.5q66 0 120 -42.5t104 -141.5z" />
    <glyph glyph-name="H" unicode="H" horiz-adv-x="814" 
d="M579 347h-344v255l99 18v17h-298v-17l99 -18v-567l-99 -18v-17h298v17l-99 18v279h344v-279l-99 -18v-17h298v17l-99 18v567l99 18v17h-298v-17l99 -18v-255z" />
    <glyph glyph-name="I" unicode="I" horiz-adv-x="400" 
d="M250 35v567l102 18v17h-305v-17l103 -18v-567l-103 -18v-17h305v17z" />
    <glyph glyph-name="J" unicode="J" horiz-adv-x="498" 
d="M375 220v382l99 18v17h-302v-17l102 -18v-421q0 -35 -3 -64t-15 -51t-34.5 -37t-61.5 -23q0 58 -20.5 90.5t-53.5 32.5q-24 0 -43.5 -16.5t-19.5 -43.5q0 -16 7 -31.5t23 -28t42 -20t65 -7.5q58 0 97.5 17.5t65.5 44.5q31 34 41.5 74t10.5 102z" />
    <glyph glyph-name="K" unicode="K" horiz-adv-x="690" 
d="M364 363l212 221l90 36v17h-217v-17l75 -31l-221 -245h-68v258l100 18v17h-299v-17l99 -18v-567l-99 -18v-17h299v17l-100 18v276h58l203 -270l-68 -24v-17h271v17l-84 29z" />
    <glyph glyph-name="L" unicode="L" horiz-adv-x="610" 
d="M582 195l-9 4l-87 -112q-11 -14 -19.5 -24t-19 -16.5t-25 -9.5t-36.5 -3h-150v568l99 18v17h-299v-17l99 -18v-567l-99 -18v-17h520z" />
    <glyph glyph-name="M" unicode="M" horiz-adv-x="914" 
d="M779 35v567l99 18v17h-220l-37 -103l-156 -395h-5l-160 395l-39 103h-210v-17l79 -20v-556l-79 -27v-17h191v17l-79 27v542h7l244 -586h24l234 586h7v-551l-99 -18v-17h298v17z" />
    <glyph glyph-name="N" unicode="N" horiz-adv-x="745" 
d="M130 44l-79 -27v-17h191v17l-79 27v508h7l347 -456l75 -102h28v599l79 27v17h-192v-17l79 -27v-409h-6l-266 351l-75 102h-188v-17l79 -26v-550z" />
    <glyph glyph-name="O" unicode="O" horiz-adv-x="706" 
d="M664 319q0 67 -20 127.5t-59 106.5t-97 72.5t-133 26.5q-72 0 -130 -26.5t-99.5 -72.5t-63.5 -106.5t-22 -127.5q0 -68 20 -128.5t59 -106.5t97 -72.5t133 -26.5q72 0 130 26.5t99.5 72.5t63.5 106.5t22 128.5zM549 319q0 -78 -16 -136.5t-42.5 -97.5t-60 -58t-67.5 -19
q-38 0 -75 15.5t-66.5 52t-48 96t-18.5 147.5t16 147.5t42.5 95.5t59.5 51.5t68 15.5q37 0 74.5 -19t67 -58t48 -97t18.5 -136z" />
    <glyph glyph-name="P" unicode="P" horiz-adv-x="592" 
d="M554 462q0 37 -14.5 69t-43 55.5t-71.5 37t-100 13.5h-289v-17l99 -18v-567l-99 -18v-17h298v17l-99 18v251q24 -4 52 -6.5t53 -2.5q54 0 94.5 16.5t67 42.5t39.5 59.5t13 66.5zM442 459q0 -154 -140 -154q-23 0 -38 1.5t-29 3.5v295q30 6 69 6q67 0 102.5 -40t35.5 -112
z" />
    <glyph glyph-name="Q" unicode="Q" horiz-adv-x="706" 
d="M664 319q0 67 -20 127.5t-59 106.5t-97 72.5t-133 26.5q-72 0 -130 -26.5t-99.5 -72.5t-63.5 -106.5t-22 -127.5q0 -62 16.5 -117.5t48.5 -99.5t80 -74t110 -39l42 -72q25 -42 40 -62.5t30 -31.5q26 -19 62 -25.5t90 -6.5h77l2 15q-32 6 -61.5 17t-57.5 31
q-54 36 -116 135q60 10 108.5 39.5t82.5 74t52 100t18 116.5zM549 319q0 -78 -16 -136.5t-42.5 -97.5t-60 -58t-67.5 -19q-38 0 -75 15.5t-66.5 52t-48 96t-18.5 147.5t16 147.5t42.5 95.5t59.5 51.5t68 15.5q37 0 74.5 -19t67 -58t48 -97t18.5 -136z" />
    <glyph glyph-name="R" unicode="R" horiz-adv-x="658" 
d="M567 474q0 74 -63 118.5t-178 44.5h-290v-17l99 -18v-567l-99 -18v-17h298v17l-99 18v263h38q17 0 31 -2.5t26.5 -11t24.5 -23.5t24 -40l55 -115q13 -29 24 -49t24 -32.5t31.5 -18.5t47.5 -6h116v17q-15 2 -26.5 5t-21.5 7.5t-19.5 11.5t-21.5 16q-22 19 -42.5 58
t-45.5 87q-17 34 -45 64.5t-68 43.5v5q86 17 133 59.5t47 99.5zM455 469q0 -36 -12 -62.5t-33 -44.5t-48.5 -27t-57.5 -9h-69v279q15 3 31.5 4.5t37.5 1.5q30 0 57.5 -9t48.5 -26.5t33 -44t12 -62.5z" />
    <glyph glyph-name="S" unicode="S" horiz-adv-x="525" 
d="M474 192q0 55 -28 92.5t-89 66.5q-28 14 -56.5 25t-54.5 23q-54 23 -73.5 51.5t-19.5 64.5q0 51 28 79.5t70 28.5q51 0 94 -38t86 -124l16 2l-17 192h-14l-41 -34q-23 14 -48.5 22.5t-57.5 8.5q-35 0 -70 -11t-63 -33.5t-46 -57t-18 -82.5q0 -56 24 -93.5t78 -63.5
q23 -11 48 -21l50 -20q36 -15 59.5 -29.5t37 -29.5t19 -33t5.5 -41q0 -57 -34.5 -90t-89.5 -33q-27 0 -52.5 8.5t-51 30t-50.5 58t-49 92.5l-16 -2l12 -219h15l40 34q29 -14 69 -22.5t78 -8.5q34 0 71.5 13t68 38.5t50.5 64.5t20 91z" />
    <glyph glyph-name="T" unicode="T" horiz-adv-x="665" 
d="M644 457l-36 180h-547l-35 -180l10 -6l61 77q18 22 31.5 37t26 23.5t26.5 12t33 3.5h74v-569l-106 -18v-17h312v17l-106 18v569h67q19 0 33 -3.5t27 -12t26 -23.5t31 -37l61 -77z" />
    <glyph glyph-name="U" unicode="U" horiz-adv-x="736" 
d="M592 593v-366q0 -40 -9.5 -75.5t-30.5 -62t-53 -42t-77 -15.5q-49 0 -85.5 10t-61 32.5t-36.5 59t-12 89.5v379l99 18v17h-300v-17l99 -18v-400q0 -111 67.5 -165t186.5 -54q53 0 98 16.5t78 46.5t51.5 70.5t18.5 88.5v388l79 27v17h-191v-17z" />
    <glyph glyph-name="V" unicode="V" horiz-adv-x="670" 
d="M598 592l73 28v17h-183v-17l71 -28l-182 -474l-182 484l99 18v17h-292v-17l88 -23l238 -603h34z" />
    <glyph glyph-name="W" unicode="W" horiz-adv-x="954" 
d="M548 602l93 18v17h-277v-17l82 -23l23 -69l-138 -399h-2l-134 473l93 18v17h-286v-17l88 -23l188 -603h35l174 477h2l164 -477h34l192 598l73 28v17h-183v-17l71 -28l-138 -465h-2z" />
    <glyph glyph-name="X" unicode="X" horiz-adv-x="715" 
d="M584 593l82 27v17h-211v-17l73 -24l-151 -217l-139 223l87 18v17h-292v-17l88 -23l197 -292l-197 -261l-82 -27v-17h211v17l-73 24l163 235l11.5 -18t28.5 -44.5t36.5 -58t36.5 -58t28 -44.5l11 -18l-87 -18v-17h292v17l-88 23l-15.5 23t-39 57t-50.5 74t-50.5 74.5
t-39 57l-15.5 22.5z" />
    <glyph glyph-name="Y" unicode="Y" horiz-adv-x="633" 
d="M566 593l79 27v17h-205v-17l73 -24l-158 -279l-151 285l86 18v17h-292v-17l88 -23l192 -322v-240l-102 -18v-17h304v17l-102 18v257z" />
    <glyph glyph-name="Z" unicode="Z" horiz-adv-x="638" 
d="M594 195l-9 4l-87 -112q-11 -14 -19.5 -24t-19 -16.5t-25 -9.5t-36.5 -3h-225l408 593l-4 10h-483l-24 -171l9 -7l77 85q13 15 23.5 26t22 18.5t27 11.5t38.5 4h179l-408 -594l4 -10h526z" />
    <glyph glyph-name="bracketleft" unicode="[" horiz-adv-x="303" 
d="M340 715v26h-252v-917h252v26h-170v865h170z" />
    <glyph glyph-name="backslash" unicode="\" horiz-adv-x="385" 
d="M23 741l-33 -14l206 -467l200 -470l33 15l-206 466z" />
    <glyph glyph-name="bracketright" unicode="]" horiz-adv-x="303" 
d="M133 715v-865h-170v-26h252v917h-252v-26h170z" />
    <glyph glyph-name="asciicircum" unicode="^" horiz-adv-x="299" 
d="M150 604l112 -99l12 10l-113 177h-15l-121 -177l12 -10z" />
    <glyph glyph-name="underscore" unicode="_" horiz-adv-x="440" 
d="M440 33h-440v-33h440v33z" />
    <glyph glyph-name="grave" unicode="`" horiz-adv-x="238" 
d="M170 518q-11 23 -21 47t-18.5 45.5t-16.5 39t-14 27.5q-10 16 -25.5 21.5t-29.5 -2.5q-14 -9 -15 -25t10 -33q6 -10 19 -24t29.5 -31t34 -35.5t34.5 -37.5z" />
    <glyph glyph-name="a" unicode="a" horiz-adv-x="468" 
d="M388 326q0 68 -30 102.5t-96 34.5q-36 0 -71.5 -9.5t-64 -25t-46 -36.5t-17.5 -45q0 -20 12.5 -34.5t35.5 -14.5q21 0 34 14.5t13 33.5q0 14 -7 29t-24 29q39 15 74 15q45 0 74 -25.5t29 -76.5v-75q-57 -8 -104 -21t-81.5 -32.5t-53.5 -45.5t-19 -60q0 -46 29 -72.5
t78 -26.5q41 0 78.5 20.5t72.5 55.5l4 -2q2 -40 17 -57t44 -17q13 0 28.5 3t30 7.5t27 9.5t19.5 10l-2 11q-45 -5 -64.5 2.5t-19.5 29.5v269zM304 74q-56 -30 -98 -30q-33 0 -52.5 18.5t-19.5 50.5q0 20 8.5 38.5t28.5 32t52.5 21.5t80.5 8v-139z" />
    <glyph glyph-name="b" unicode="b" horiz-adv-x="527" 
d="M489 231q0 55 -16 98.5t-42 73.5t-59 45.5t-66 15.5q-48 0 -84 -20t-61 -46l-4 2v339l-4 2l-154 -39v-10l73 -43v-628q15 -8 34 -14.5t40.5 -11.5t43 -8t41.5 -3q58 0 105.5 20.5t81.5 54.5t52.5 78.5t18.5 93.5zM400 215q0 -54 -9.5 -91.5t-25 -61.5t-37 -35t-45.5 -11
q-32 0 -66 12.5t-60 35.5v314q17 11 39 17t51 6q71 0 112 -46.5t41 -139.5z" />
    <glyph glyph-name="c" unicode="c" horiz-adv-x="454" 
d="M419 374q0 38 -37.5 64t-100.5 26q-54 0 -99 -19t-77.5 -52.5t-51 -79t-18.5 -97.5t16 -95t45.5 -73.5t70 -47t88.5 -16.5t94 24t81 62l-5 13q-35 -17 -69.5 -27t-71.5 -10q-38 0 -68 14.5t-50 40t-30.5 60t-10.5 74.5q0 54 13.5 92t36.5 62.5t52 36t61 11.5q23 0 42 -4
q-10 -11 -16 -26.5t-6 -32.5q0 -23 15 -41.5t42 -18.5q23 0 38.5 17t15.5 43z" />
    <glyph glyph-name="d" unicode="d" horiz-adv-x="527" 
d="M449 56v683l-4 2l-153 -39v-10l73 -43v-192q-18 4 -35.5 5.5t-40.5 1.5q-63 0 -110 -21.5t-78.5 -57t-47 -81t-15.5 -94.5q0 -56 15.5 -98t41 -70.5t58 -43t67.5 -14.5q40 0 68 13.5t50 33.5l25 22l4 -2l8 -66l5 -2l135 37v10zM127 227q0 56 11.5 96.5t30 66.5t42 38
t47.5 12q35 0 61.5 -16.5t45.5 -44.5v-299q-36 -38 -94 -38q-32 0 -58.5 13.5t-45.5 38t-29.5 58.5t-10.5 75z" />
    <glyph glyph-name="e" unicode="e" horiz-adv-x="479" 
d="M442 270q0 42 -11.5 77.5t-35 61.5t-58.5 40.5t-81 14.5q-47 0 -87 -19t-70 -52t-47 -78t-17 -98q0 -52 16 -95t45.5 -73.5t69.5 -47.5t88 -17q49 0 92.5 22.5t90.5 67.5l-6 12q-43 -22 -76.5 -31t-70.5 -9q-42 0 -72 16.5t-49 46t-28 70.5t-9 91h316zM127 291
q2 34 12.5 62t27 47.5t37.5 30.5t45 11q47 0 69.5 -39.5t27.5 -104.5z" />
    <glyph glyph-name="f" unicode="f" horiz-adv-x="320" 
d="M324 402v40h-124v89q0 74 14.5 115t46.5 60q23 -40 44.5 -56.5t44.5 -16.5t36.5 14t13.5 37t-20.5 39.5t-60.5 16.5q-35 0 -67 -12t-59 -36q-38 -33 -58 -79t-20 -120v-48l-90 -26v-17h90v-371l-66 -18v-13h232v13l-81 18v371h124z" />
    <glyph glyph-name="g" unicode="g" horiz-adv-x="499" 
d="M415 319q0 54 -39 93l2 5l58 7q2 -19 14 -30t31 -11t32 14t13 33t-12.5 32t-37.5 13q-45 0 -115 -45q-22 16 -51.5 24.5t-64.5 8.5q-38 0 -72 -10.5t-59.5 -31t-40.5 -49t-15 -64.5q0 -47 23 -77.5t61 -49.5v-5q-41 -24 -59.5 -49.5t-18.5 -48.5t16.5 -41.5t46.5 -28.5
l1 -5q-48 -16 -77 -43.5t-29 -59.5q0 -22 13 -42t38.5 -35t62.5 -24t86 -9q63 0 110.5 15t80 39t48.5 54t16 60q0 52 -33 78.5t-111 28.5l-123 2q-38 1 -55.5 9t-17.5 31q0 16 5.5 34.5t16.5 29.5q15 -7 34.5 -11.5t41.5 -4.5q40 0 73 12t57 33.5t37 52t13 66.5zM325 308
q0 -58 -22 -95.5t-62 -37.5q-46 0 -69.5 29.5t-23.5 103.5q0 71 21.5 103t62.5 32q45 0 69 -39t24 -96zM408 -80q0 -19 -10 -37.5t-29.5 -33t-47 -23.5t-63.5 -9q-75 0 -113.5 28t-38.5 68q0 26 11.5 48.5t31.5 35.5l166 -2q48 -2 70.5 -21t22.5 -54z" />
    <glyph glyph-name="h" unicode="h" horiz-adv-x="568" 
d="M401 282v-251l-63 -18v-13h213v13l-66 18v294q0 27 -7.5 52t-23.5 44.5t-40.5 31t-58.5 11.5q-41 0 -82 -19.5t-86 -61.5l-4 2v354l-4 2l-154 -39v-10l73 -43v-618l-66 -18v-13h213v13l-62 18v332q30 17 56.5 24t58.5 7q50 0 76.5 -27.5t26.5 -84.5z" />
    <glyph glyph-name="i" unicode="i" horiz-adv-x="281" 
d="M91 611q0 -24 15 -39.5t38 -15.5q26 0 43 18.5t17 42.5q0 23 -15.5 38.5t-38.5 15.5q-25 0 -42 -18.5t-17 -41.5zM105 378v-347l-70 -18v-13h221v13l-67 18v431l-4 3l-146 -36v-9z" />
    <glyph glyph-name="j" unicode="j" horiz-adv-x="268" 
d="M88 611q0 -24 15 -39.5t38 -15.5q26 0 43 18.5t17 42.5q0 23 -15.5 38.5t-38.5 15.5q-25 0 -42 -18.5t-17 -41.5zM190 1v461l-4 3l-147 -36v-9l66 -42v-456q0 -46 -10 -68t-34 -36q-5 36 -22 57t-41 21q-20 0 -34 -13t-14 -36q0 -20 19.5 -38.5t51.5 -18.5t63 11.5
t55 40.5q12 14 21.5 29.5t16 34t10 42t3.5 53.5z" />
    <glyph glyph-name="k" unicode="k" horiz-adv-x="519" 
d="M279 263l144 146l67 26v13h-184v-10l53 -35l-131 -155h-45v491l-4 2l-154 -39v-10l73 -43v-618l-70 -18v-13h211v13l-56 18v187h40l131 -184l-40 -21v-13h196v13l-56 21z" />
    <glyph glyph-name="l" unicode="l" horiz-adv-x="269" 
d="M183 31v708l-4 2l-154 -39v-10l73 -43v-618l-70 -18v-13h221v13z" />
    <glyph glyph-name="m" unicode="m" horiz-adv-x="832" 
d="M665 282v-251l-63 -18v-13h214v13l-67 18v294q0 27 -6.5 52t-20.5 44.5t-37 31.5t-57 12q-41 0 -81 -24.5t-85 -66.5l-5 2q-11 35 -37.5 61.5t-75.5 26.5q-41 0 -79.5 -21t-83.5 -63l-4 2l2 80l-4 3l-140 -36v-9l65 -42v-347l-66 -18v-13h213v13l-62 18v332q15 9 27 14.5
t24 9.5t24.5 5.5t28.5 1.5q50 0 71 -24t21 -82v-257l-62 -18v-13h213v13l-66 18v326q30 17 52.5 27t54.5 10q50 0 71 -27.5t21 -84.5z" />
    <glyph glyph-name="n" unicode="n" horiz-adv-x="558" 
d="M475 325q0 27 -6.5 52t-21 44.5t-38 31t-57.5 11.5q-81 0 -171 -84l-4 2l2 80l-4 3l-140 -36v-9l65 -42v-347l-66 -18v-13h213v13l-62 18v332q30 17 55 24t57 7q51 0 72.5 -27.5t21.5 -84.5v-251l-63 -18v-13h213v13l-66 18v294z" />
    <glyph glyph-name="o" unicode="o" horiz-adv-x="519" 
d="M484 227q0 51 -14 94.5t-41 75t-67.5 49.5t-94.5 18q-55 0 -98 -19.5t-73 -52.5t-45.5 -76.5t-15.5 -91.5q0 -51 14 -95t42 -76.5t68.5 -50.5t93.5 -18q55 0 98 20t72.5 53.5t45 77.5t15.5 92zM387 227q0 -113 -34 -167t-90 -54q-26 0 -50 13t-42 39.5t-28.5 67
t-10.5 95.5q0 112 36 166.5t88 54.5q56 0 93.5 -53t37.5 -162z" />
    <glyph glyph-name="p" unicode="p" horiz-adv-x="550" 
d="M512 237q0 52 -14 94t-38 71.5t-56.5 45.5t-70.5 16q-45 0 -82 -22t-75 -62l-4 2l2 80l-4 3l-140 -36v-9l65 -42v-551l-66 -24v-13h227v13l-76 24v168q21 -5 42.5 -8t45.5 -3q57 0 102 21t76.5 56.5t48.5 81t17 94.5zM423 217q0 -54 -11 -93t-29.5 -64.5t-41.5 -37.5
t-47 -12q-33 0 -60.5 12.5t-53.5 35.5v308q19 14 46 24.5t52 10.5q69 0 107 -50.5t38 -133.5z" />
    <glyph glyph-name="q" unicode="q" horiz-adv-x="515" 
d="M515 -210v13l-66 24v655l-9 2l-43 -43q-24 8 -53.5 15.5t-61.5 7.5q-59 0 -104.5 -21.5t-76.5 -57t-47 -81.5t-16 -95q0 -56 16 -98t41.5 -70.5t58.5 -42.5t68 -14t60 11t49 30l29 23l4 -3v-218l-76 -24v-13h227zM271 39q-32 0 -58.5 14t-45.5 39t-29.5 59.5t-10.5 75.5
q0 56 11.5 96.5t30 66.5t41.5 38t47 12q36 0 62.5 -16.5t45.5 -44.5v-302q-36 -38 -94 -38z" />
    <glyph glyph-name="r" unicode="r" horiz-adv-x="394" 
d="M379 406q0 23 -16.5 40.5t-50.5 17.5q-35 0 -71 -28t-60 -75l-4 3l2 98l-4 3l-140 -36v-9l65 -42v-347l-66 -18v-13h220v13l-69 18v309q11 25 36 44t53 21q4 -24 19 -38.5t35 -14.5q23 0 37 15t14 39z" />
    <glyph glyph-name="s" unicode="s" horiz-adv-x="390" 
d="M353 137q0 30 -11.5 51.5t-29.5 37t-41 26.5t-46 21q-21 9 -41 18t-35.5 20t-25 26t-9.5 35q0 32 20.5 50t54.5 18q33 0 62.5 -26t58.5 -86l18 5l-3 113q-20 8 -54.5 13.5t-63.5 5.5q-36 0 -65 -11t-49.5 -29.5t-31.5 -44t-11 -55.5q0 -29 11 -50t28.5 -36t40 -26
t45.5 -21q21 -9 40.5 -17.5t35 -20t24.5 -26t9 -34.5q0 -40 -23.5 -62t-63.5 -22q-41 0 -74.5 30.5t-58.5 99.5l-21 -2v-126q35 -15 67 -21t70 -6q37 0 68.5 10.5t54.5 30.5t36.5 48t13.5 63z" />
    <glyph glyph-name="t" unicode="t" horiz-adv-x="331" 
d="M328 38l-1 10q-16 -1 -30 -1.5t-26 -0.5q-53 0 -74 12q-16 11 -20 28.5t-4 44.5v272h152v43h-152v113h-17l-59 -91l-78 -52v-13h70v-306q0 -54 20.5 -79.5t77.5 -25.5q35 0 71.5 13t69.5 33z" />
    <glyph glyph-name="u" unicode="u" horiz-adv-x="544" 
d="M463 56v406l-4 3l-146 -36v-9l66 -35v-300q-30 -17 -55 -24.5t-57 -7.5q-50 0 -71.5 27.5t-21.5 85.5v296l-4 3l-146 -36v-9l65 -35v-262q0 -27 6.5 -52t21 -44.5t38 -31t57.5 -11.5q81 0 171 84l4 -2l-2 -79l4 -2l140 35v10z" />
    <glyph glyph-name="v" unicode="v" horiz-adv-x="495" 
d="M162 414l70 21v13h-229v-13l62 -21l178 -425h24l170 415l73 31v13h-176v-13l64 -29l-61 -172l-51 -131h-4z" />
    <glyph glyph-name="w" unicode="w" horiz-adv-x="702" 
d="M411 414l67 21v13h-213v-13l55 -21l4.5 -13.5l10 -30l10 -30l4.5 -13.5l-10 -22t-23.5 -53t-28 -64t-23.5 -53.5t-10 -22.5h-5l-101 302l67 21v13h-225v-13l61 -21l156 -425h25l133 293l99 -293h24l164 415l73 31v13h-176v-13l63 -29l-105 -294h-5z" />
    <glyph glyph-name="x" unicode="x" horiz-adv-x="516" 
d="M276 270l-91 144l64 21v13h-232v-13l62 -21q1 -2 15 -21.5t36.5 -51t43.5 -61.5t36 -52l15 -22l-128 -163l-73 -30v-13h169v13l-50 27l99 142l95 -148l-64 -21v-13h232v13l-61 21l-152 211l128 159l73 31v13h-170v-13l51 -27z" />
    <glyph glyph-name="y" unicode="y" horiz-adv-x="490" 
d="M431 404l68 31v13h-171v-13l63 -29l-108 -303h-5l-117 311l70 21v13h-228v-13l61 -21l174 -423l-29 -66q-23 -50 -52 -78q-16 21 -31.5 34t-38.5 13q-21 0 -36 -14t-15 -34t16 -38t51 -18q82 0 131 122z" />
    <glyph glyph-name="z" unicode="z" horiz-adv-x="464" 
d="M429 441l-3 7h-362l-12 -134l11 -6l97 112h150l-282 -413l3 -7h380l16 134l-12 6l-105 -112h-164z" />
    <glyph glyph-name="braceleft" unicode="{" horiz-adv-x="333" 
d="M229 470v123q0 34 5.5 56.5t18.5 36.5t34.5 22t53.5 13v20q-45 -2 -81.5 -9.5t-62 -26.5t-39 -51.5t-13.5 -85.5v-131q0 -37 -7 -62.5t-23 -42t-41.5 -26t-62.5 -13.5v-16q73 -8 103.5 -39t30.5 -104v-137q0 -53 13.5 -86t39 -51.5t62 -26t81.5 -9.5v19q-32 5 -53.5 13
t-34.5 22t-18.5 36.5t-5.5 56.5v130q0 52 -9 85t-27 53t-44.5 29.5t-60.5 15.5v2q34 6 60.5 16t44.5 29.5t27 52.5t9 86z" />
    <glyph glyph-name="bar" unicode="|" horiz-adv-x="268" 
d="M152 -241l-3 471l3 471h-36l3 -471l-3 -471h36z" />
    <glyph glyph-name="braceright" unicode="}" horiz-adv-x="333" 
d="M189 437v131q0 53 -13.5 85.5t-39 51.5t-62 26.5t-82.5 9.5v-20q32 -5 54 -13t35 -22t18.5 -36.5t5.5 -56.5v-123q0 -53 9 -86t27 -52.5t44.5 -29.5t60.5 -16v-2q-34 -6 -60.5 -15.5t-44.5 -29.5t-27 -53t-9 -85v-130q0 -34 -5.5 -56.5t-18.5 -36.5t-35 -22t-54 -13v-19
q46 2 82.5 9.5t62 26t39 51.5t13.5 86v137q0 37 7 62.5t23 42t41.5 25.5t61.5 13v16q-36 4 -61.5 13.5t-41.5 26t-23 42t-7 62.5z" />
    <glyph glyph-name="asciitilde" unicode="~" horiz-adv-x="361" 
d="M121 368q-30 0 -51 -21.5t-30 -77.5l13 -5q10 23 22.5 32t27.5 9t31 -5.5t33.5 -12t36 -12t37.5 -5.5q30 0 51 21.5t29 77.5l-13 6q-9 -23 -22 -32.5t-28 -9.5q-14 0 -30.5 5.5t-33.5 12t-35.5 12t-37.5 5.5z" />
    <glyph glyph-name="nonbreakingspace" unicode="&#xa0;" horiz-adv-x="115" 
 />
    <glyph glyph-name="exclamdown" unicode="&#xa1;" horiz-adv-x="268" 
d="M194 341q0 25 -17.5 42.5t-42.5 17.5t-42.5 -17.5t-17.5 -42.5t17.5 -42.5t42.5 -17.5t42.5 17.5t17.5 42.5zM122 211q-8 -64 -16 -129.5t-14.5 -122t-10.5 -99.5t-4 -63q0 -31 15.5 -47t40.5 -16q24 0 40 16t16 47q0 20 -4 63t-10.5 99.5t-14.5 122t-16 129.5h-22z" />
    <glyph glyph-name="cent" unicode="&#xa2;" horiz-adv-x="472" 
d="M258 51l13 166l20 221q20 -2 35.5 -8t24.5 -15q-15 -17 -19.5 -38t0 -39t18 -30t35.5 -12q24 0 39.5 17t15.5 49q0 18 -9.5 36t-28 32.5t-46 23.5t-63.5 10l6 68l-34 4l-6 -74q-46 -5 -86 -25.5t-69.5 -53.5t-46.5 -75.5t-17 -90.5q0 -45 13.5 -83.5t37.5 -68t57 -49.5
t72 -27l-8 -81l35 -4l6 82q54 -4 102.5 19.5t86.5 65.5l-6 13q-35 -18 -69 -27.5t-71 -9.5q-22 0 -38 4zM131 236q0 47 11.5 82t29.5 59.5t40.5 38.5t44.5 19l-16 -215l-2 -24.5t-5 -54.5t-5.5 -54.5l-2.5 -24.5q-45 21 -70 67.5t-25 106.5z" />
    <glyph glyph-name="sterling" unicode="&#xa3;" horiz-adv-x="548" 
d="M419 329h-146q-17 32 -26.5 63.5t-9.5 62.5q0 52 26 91.5t80 51.5q10 -50 36 -75t53 -25q25 0 40.5 17t15.5 41q0 10 -5 22.5t-18.5 23.5t-37 18.5t-60.5 7.5q-44 0 -85 -16t-73.5 -44t-52 -66.5t-19.5 -82.5q0 -45 22 -90h-113v-40h131q13 -29 13 -61q0 -69 -51 -132
q-61 -3 -87.5 -23t-26.5 -46q0 -19 12 -30.5t36 -11.5q23 0 46 19.5t37 54.5q29 -14 60.5 -27.5t61 -24t55.5 -16.5t44 -6q31 0 55.5 16t41.5 43t27.5 62t13.5 73l-22 1q-11 -47 -30 -71.5t-61 -24.5q-21 0 -49.5 2.5t-60 5t-62.5 4t-56 -1.5l-1 7q54 28 82.5 73t28.5 96v9
q0 5 -1 10h136v40z" />
    <glyph glyph-name="currency" unicode="&#xa4;" horiz-adv-x="546" 
d="M74 349q-2 -15 -3.5 -30.5t-1.5 -32.5v-14t1 -14h-57v-33h61q9 -59 35.5 -104t64 -75t82 -45.5t91.5 -15.5q48 0 89.5 18t72.5 51l-6 12q-30 -13 -54 -18.5t-58 -5.5q-36 0 -69.5 12.5t-61 35.5t-48 57t-30.5 78h260v33h-266q-3 22 -3 47q0 11 0.5 22t1.5 22h267v33h-264
q8 58 27.5 99.5t45 68t56 39t60.5 12.5q23 0 42 -4q-15 -18 -19.5 -39t0.5 -39t19 -29.5t35 -11.5q23 0 38.5 17t15.5 43q0 38 -37.5 64t-100.5 26q-47 0 -91.5 -17t-82 -49t-65.5 -77.5t-41 -102.5h-67v-33h61z" />
    <glyph glyph-name="yen" unicode="&#xa5;" horiz-adv-x="644" 
d="M104 312v-34h168v-66h-168v-34h168v-143l-102 -18v-17h302v17l-103 18v143h169v34h-169v66h169v34h-156l163 256l78 27v17h-204v-17l73 -24l-142 -247l-134 253l87 18v17h-283v-17l82 -23l155 -260h-153z" />
    <glyph glyph-name="brokenbar" unicode="&#xa6;" horiz-adv-x="268" 
d="M152 289l-3 206l3 206h-36l3 -206l-3 -206h36zM152 -241l-3 206l3 206h-36l3 -206l-3 -206h36z" />
    <glyph glyph-name="section" unicode="&#xa7;" horiz-adv-x="475" 
d="M415 146q0 101 -75.5 197.5t-219.5 188.5q15 52 50.5 83t80.5 31q23 0 42 -8.5t30 -22.5q-7 -13 -9.5 -24.5t-2.5 -22.5q0 -21 14 -36.5t38 -15.5q22 0 38 16t16 42q0 19 -10 36.5t-29 31t-45.5 21.5t-60.5 8q-43 0 -81.5 -18.5t-67.5 -51t-46 -77.5t-17 -98
q0 -103 75 -200t217 -191q-16 -49 -50.5 -79t-78.5 -30q-23 0 -42 9t-30 23q13 25 13 46q0 22 -14.5 37t-37.5 15t-39 -16t-16 -41q0 -19 10 -36.5t28.5 -31t45.5 -21.5t61 -8q43 0 81.5 18.5t67.5 51.5t46.5 77.5t17.5 96.5zM112 469q0 19 3 37q48 -54 93 -105.5
t79.5 -101.5t55 -98.5t20.5 -96.5q0 -11 -1 -22t-3 -21q-48 55 -92.5 107.5t-79 103.5t-55 100t-20.5 97z" />
    <glyph glyph-name="dieresis" unicode="&#xa8;" horiz-adv-x="322" 
d="M243 556q23 0 38.5 16.5t15.5 37.5t-13.5 35t-34.5 14q-23 0 -38.5 -16.5t-15.5 -37.5t13.5 -35t34.5 -14zM73 556q23 0 38.5 16.5t15.5 37.5t-13.5 35t-34.5 14q-23 0 -38.5 -16.5t-15.5 -37.5t13.5 -35t34.5 -14z" />
    <glyph glyph-name="copyright" unicode="&#xa9;" horiz-adv-x="734" 
d="M701 319q0 69 -26.5 129.5t-71.5 106t-106 71.5t-130 26t-130 -26t-106 -71.5t-71.5 -106t-26.5 -129.5t26.5 -130t71.5 -106.5t106 -71.5t130 -26t130 26t106 71.5t71.5 106.5t26.5 130zM676 319q0 -65 -24 -121.5t-66 -98.5t-98.5 -66.5t-120.5 -24.5t-120 24.5
t-98 66.5t-66.5 98.5t-24.5 121.5q0 64 24.5 120.5t66.5 98.5t98 66.5t120 24.5t120.5 -24.5t98.5 -66.5t66 -98.5t24 -120.5zM270 324q0 41 8 69.5t21.5 46.5t30.5 26t34 8q36 0 63.5 -24t50.5 -75l14 1l-6 121h-12l-18 -18q-15 8 -36 12t-41 4q-40 0 -73.5 -14.5t-58 -39
t-38 -57t-13.5 -69.5q0 -39 13 -71t37 -54.5t57 -35t74 -12.5q36 0 60.5 6.5t50.5 18.5l11 82l-10 2l-62 -79q-8 -4 -16 -5t-20 -1q-53 0 -87 40t-34 118z" />
    <glyph glyph-name="ordfeminine" unicode="&#xaa;" horiz-adv-x="396" 
d="M67 567q0 -14 10 -25.5t28 -11.5q17 0 27 11t10 25q0 11 -6 22.5t-19 21.5q27 9 49 9q36 0 55.5 -17.5t19.5 -51.5v-56q-41 -4 -75.5 -12t-59 -21.5t-38 -32t-13.5 -42.5q0 -32 21.5 -51t58.5 -19q29 0 56 13.5t50 36.5l4 -1q2 -27 14.5 -38t33.5 -11q20 0 42 6t35 13
l-2 10q-32 -2 -45 5t-13 23v183q0 96 -94 96q-26 0 -52 -6.5t-48 -18t-35.5 -27t-13.5 -33.5zM126 407q0 29 25 47t90 20v-95q-18 -10 -34 -15.5t-30 -5.5q-23 0 -37 13t-14 36z" />
    <glyph glyph-name="guillemotleft" unicode="&#xab;" horiz-adv-x="471" 
d="M302 224l119 178l-18 16l-196 -189v-10l196 -189l18 15zM125 224l119 178l-18 16l-196 -189v-10l196 -189l18 15z" />
    <glyph glyph-name="logicalnot" unicode="&#xac;" horiz-adv-x="505" 
d="M464 283v47h-423v-47h423z" />
    <glyph glyph-name="registered" unicode="&#xae;" horiz-adv-x="376" 
d="M188 352q32 0 59.5 11.5t47.5 31.5t31.5 47.5t11.5 59.5t-11.5 59.5t-31.5 47.5t-47.5 31.5t-59.5 11.5t-59.5 -11.5t-47.5 -31.5t-31.5 -47.5t-11.5 -59.5t11.5 -59.5t31.5 -47.5t47.5 -31.5t59.5 -11.5zM188 368q-28 0 -52 10t-41.5 28t-27.5 42.5t-10 53.5
q0 28 10 52.5t27.5 42.5t41.5 28.5t52 10.5t52 -10.5t41.5 -28.5t27.5 -42.5t10 -52.5q0 -29 -10 -53.5t-27.5 -42.5t-41.5 -28t-52 -10zM252 543q0 15 -13 26.5t-41 11.5h-85v-9l27 -7v-122l-27 -6v-9h83v9l-26 6v52h8q12 0 17.5 -3t9.5 -12l11 -26q6 -15 11.5 -20.5
t19.5 -5.5h30v9q-13 1 -21 8q-5 4 -8.5 11t-8.5 19q-10 21 -30 25v4q22 4 32.5 14.5t10.5 24.5zM220 539q0 -15 -9 -23.5t-30 -8.5h-11v62h15q35 0 35 -30z" />
    <glyph glyph-name="macron" unicode="&#xaf;" horiz-adv-x="321" 
d="M286 581h-251v-42h251v42z" />
    <glyph glyph-name="macron" unicode="&#x2c9;" horiz-adv-x="321" 
d="M286 581h-251v-42h251v42z" />
    <glyph glyph-name="degree" unicode="&#xb0;" horiz-adv-x="384" 
d="M346 503q0 29 -10 56t-29 47.5t-47 33t-64 12.5q-37 0 -66.5 -13t-49.5 -34.5t-31 -48.5t-11 -54q0 -29 10 -56t29 -48t47.5 -33.5t64.5 -12.5q37 0 66 13.5t49.5 35t31 48.5t10.5 54zM277 503q0 -57 -22 -92.5t-62 -35.5q-38 0 -62 35t-24 91q0 57 23 92.5t61 35.5
q40 0 63 -35t23 -91z" />
    <glyph glyph-name="plusminus" unicode="&#xb1;" 
d="M25 -200h450v1000h-450v-1000z" />
    <glyph glyph-name="twosuperior" unicode="&#xb2;" 
d="M25 -200h450v1000h-450v-1000z" />
    <glyph glyph-name="threesuperior" unicode="&#xb3;" 
d="M25 -200h450v1000h-450v-1000z" />
    <glyph glyph-name="acute" unicode="&#xb4;" horiz-adv-x="238" 
d="M180 696q-14 8 -29 2.5t-26 -21.5q-6 -10 -14 -27.5t-16.5 -39t-18.5 -45.5t-20 -47l12 -8q16 19 34.5 37.5t35 35.5t29.5 31t19 24q11 17 9.5 33t-15.5 25z" />
    <glyph glyph-name="mu" unicode="&#xb5;" horiz-adv-x="505" 
d="M282 306l142 145l-33 31l-139 -144l-139 144l-33 -31l142 -145l-143 -146l33 -31l140 145l140 -145l33 31z" />
    <glyph glyph-name="mu" unicode="&#x3bc;" horiz-adv-x="505" 
d="M282 306l142 145l-33 31l-139 -144l-139 144l-33 -31l142 -145l-143 -146l33 -31l140 145l140 -145l33 31z" />
    <glyph glyph-name="paragraph" unicode="&#xb6;" horiz-adv-x="717" 
d="M582 -48v690l110 19v16h-206q-101 0 -180 -27.5t-133.5 -77.5t-83.5 -120t-29 -155q0 -84 26.5 -154t79 -120.5t131.5 -78t183 -27.5h212v17zM471 644l78 -2v-690l-78 -2v694z" />
    <glyph glyph-name="periodcentered" unicode="&#xb7;" horiz-adv-x="211" 
d="M166 318q0 25 -17.5 42.5t-42.5 17.5q-26 0 -43.5 -17.5t-17.5 -42.5t17.5 -42.5t43.5 -17.5q25 0 42.5 17.5t17.5 42.5z" />
    <glyph glyph-name="cedilla" unicode="&#xb8;" horiz-adv-x="282" 
d="M169 -160q0 35 -23 58t-59 28l119 100l-13 19l-179 -150l15 -17q8 2 14.5 3.5t14.5 1.5q29 0 43 -17t14 -43q0 -29 -13 -43.5t-36 -14.5q-15 0 -27 7q4 4 7 10t3 13q0 12 -6.5 21t-20.5 9t-21.5 -9t-7.5 -23q0 -20 17.5 -33t52.5 -13q47 0 76.5 26t29.5 67z" />
    <glyph glyph-name="onesuperior" unicode="&#xb9;" 
d="M25 -200h450v1000h-450v-1000z" />
    <glyph glyph-name="ordmasculine" unicode="&#xba;" horiz-adv-x="404" 
d="M367 486q0 35 -10 65.5t-30 53t-50 35t-70 12.5q-41 0 -72.5 -14t-53 -37t-33 -53.5t-11.5 -63.5q0 -35 10 -66t30 -53.5t50 -35.5t70 -13q41 0 72.5 14t53.5 37.5t33 54.5t11 64zM290 486q0 -76 -23 -113.5t-63 -37.5q-38 0 -64 36.5t-26 111.5t24 113t62 38
q41 0 65.5 -37t24.5 -111z" />
    <glyph glyph-name="guillemotright" unicode="&#xbb;" horiz-adv-x="471" 
d="M441 219v10l-196 189l-18 -16l119 -178l-119 -179l18 -15zM264 219v10l-196 189l-18 -16l119 -178l-119 -179l18 -15z" />
    <glyph glyph-name="onequarter" unicode="&#xbc;" 
d="M25 -200h450v1000h-450v-1000z" />
    <glyph glyph-name="onehalf" unicode="&#xbd;" 
d="M25 -200h450v1000h-450v-1000z" />
    <glyph glyph-name="threequarters" unicode="&#xbe;" 
d="M25 -200h450v1000h-450v-1000z" />
    <glyph glyph-name="questiondown" unicode="&#xbf;" horiz-adv-x="368" 
d="M279 341q0 25 -17.5 42.5t-42.5 17.5t-42.5 -17.5t-17.5 -42.5t17.5 -42.5t42.5 -17.5t42.5 17.5t17.5 42.5zM360 -172q0 26 -17 43t-40 17q-25 0 -40 -16.5t-15 -41.5q0 -11 3 -24t11 -26q-21 -22 -58 -22q-47 0 -72.5 29t-25.5 71q0 44 25.5 71.5t74.5 54.5
q56 32 82 63t26 73q0 22 -9.5 39.5t-26 29.5t-37.5 18t-44 6t-45.5 -7.5t-34.5 -19.5l5 -11q11 2 25 4.5t30 2.5q27 0 44 -14.5t17 -37.5q0 -26 -20 -43t-70 -42q-62 -31 -91 -65t-29 -83q0 -33 13.5 -62.5t37.5 -52t57.5 -35.5t73.5 -13q32 0 59.5 7t47.5 19.5t31.5 29.5
t11.5 38z" />
    <glyph glyph-name="Agrave" unicode="&#xc0;" horiz-adv-x="629" 
d="M325 704q-11 23 -21 47t-18.5 45.5t-16.5 39t-14 27.5q-10 16 -25.5 21.5t-29.5 -2.5q-14 -9 -15 -25t10 -33q6 -10 19 -24t29.5 -31t34 -35.5t34.5 -37.5zM563 40l-231 603h-47l-230 -599l-71 -27v-17h181v17l-72 24l72 193h219l74 -199l-99 -18v-17h285v17zM371 267
h-194l96 258h2z" />
    <glyph glyph-name="Aacute" unicode="&#xc1;" horiz-adv-x="629" 
d="M385 882q-14 8 -29 2.5t-26 -21.5q-6 -10 -14 -27.5t-16.5 -39t-18.5 -45.5t-20 -47l12 -8q16 19 34.5 37.5t35 35.5t29.5 31t19 24q11 17 9.5 33t-15.5 25zM563 40l-231 603h-47l-230 -599l-71 -27v-17h181v17l-72 24l72 193h219l74 -199l-99 -18v-17h285v17zM371 267
h-194l96 258h2z" />
    <glyph glyph-name="Acircumflex" unicode="&#xc2;" horiz-adv-x="629" 
d="M307 770l112 -99l12 10l-113 177h-15l-121 -177l12 -10zM565 40l-231 603h-47l-230 -599l-71 -27v-17h181v17l-72 24l72 193h219l74 -199l-99 -18v-17h285v17zM373 267h-194l96 258h2z" />
    <glyph glyph-name="Atilde" unicode="&#xc3;" horiz-adv-x="629" 
d="M171 718l13 -5q10 23 22.5 32t27.5 9t31 -5.5t33.5 -12t36 -12t37.5 -5.5q30 0 51 21.5t29 77.5l-13 6q-9 -23 -22 -32.5t-28 -9.5q-14 0 -30.5 5.5t-33.5 12t-35.5 12t-37.5 5.5q-30 0 -51 -21.5t-30 -77.5zM563 40l-231 603h-47l-230 -599l-71 -27v-17h181v17l-72 24
l72 193h219l74 -199l-99 -18v-17h285v17zM371 267h-194l96 258h2z" />
    <glyph glyph-name="Adieresis" unicode="&#xc4;" horiz-adv-x="629" 
d="M396 742q23 0 38.5 16.5t15.5 37.5t-13.5 35t-34.5 14q-23 0 -38.5 -16.5t-15.5 -37.5t13.5 -35t34.5 -14zM226 742q23 0 38.5 16.5t15.5 37.5t-13.5 35t-34.5 14q-23 0 -38.5 -16.5t-15.5 -37.5t13.5 -35t34.5 -14zM563 40l-231 603h-47l-230 -599l-71 -27v-17h181v17
l-72 24l72 193h219l74 -199l-99 -18v-17h285v17zM371 267h-194l96 258h2z" />
    <glyph glyph-name="Aring" unicode="&#xc5;" horiz-adv-x="629" 
d="M563 40l-229 598q30 9 47.5 33t17.5 52q0 37 -23.5 63t-65.5 26q-21 0 -38.5 -7.5t-29.5 -20t-19 -28.5t-7 -33q0 -32 17.5 -55.5t48.5 -31.5l-227 -592l-71 -27v-17h181v17l-72 24l72 193h219l74 -199l-99 -18v-17h285v17zM260 722q0 72 46 72q48 0 48 -71
q0 -72 -46 -72q-22 0 -35 18t-13 53zM273 525h2l96 -258h-194z" />
    <glyph glyph-name="AE" unicode="&#xc6;" horiz-adv-x="922" 
d="M225 262h191v-227l-99 -18v-17h544l27 195l-9 4l-88 -112q-11 -14 -19.5 -24t-19 -16.5t-25 -9.5t-36.5 -3h-175v273h53q45 0 66 -21.5t35 -73.5l9 -31h15v281h-15l-9 -33q-7 -26 -15 -44t-19.5 -29t-28 -16t-38.5 -5h-53v269h129q23 0 38.5 -4t27 -11.5t21.5 -18.5
t24 -26l77 -85l10 7l-24 171h-515v-17l96 -26l-365 -550l-71 -27v-17h194v17l-73 24zM416 295h-170l168 264h2v-264z" />
    <glyph glyph-name="Ccedilla" unicode="&#xc7;" horiz-adv-x="655" 
d="M156 329q0 78 16.5 133.5t43.5 91.5t60 52.5t66 16.5q37 0 69 -10t60.5 -32t54 -57t50.5 -85l16 2l-8 214h-11l-43 -34q-29 15 -69 23t-78 8q-74 0 -137 -27t-109 -73.5t-71.5 -108.5t-25.5 -131q0 -75 25 -135.5t71 -103t109.5 -65.5t140.5 -23l-108 -90l15 -17
q8 2 14.5 3.5t14.5 1.5q29 0 43 -17t14 -43q0 -29 -13 -43.5t-36 -14.5q-15 0 -27 7q4 4 7 10t3 13q0 12 -6.5 21t-20.5 9t-21.5 -9t-7.5 -23q0 -20 17.5 -33t52.5 -13q47 0 76.5 26t29.5 67q0 35 -23 58t-59 28l73 61q50 4 87 17t77 34l19 132l-9 4l-113 -141
q-32 -14 -78 -14q-51 0 -97 19.5t-80 58.5t-54 97t-20 135z" />
    <glyph glyph-name="Egrave" unicode="&#xc8;" horiz-adv-x="641" 
d="M361 704q-11 23 -21 47t-18.5 45.5t-16.5 39t-14 27.5q-10 16 -25.5 21.5t-29.5 -2.5q-14 -9 -15 -25t10 -33q6 -10 19 -24t29.5 -31t34 -35.5t34.5 -37.5zM537 637h-501v-17l99 -18v-567l-99 -18v-17h544l27 195l-10 4l-87 -112q-11 -14 -19.5 -24t-19 -16.5t-25 -9.5
t-36.5 -3h-175v273h53q45 0 66 -21.5t35 -73.5l9 -31h15v281h-15l-9 -33q-7 -26 -15 -44t-19.5 -29t-28 -16t-38.5 -5h-53v269h129q23 0 38.5 -4t27 -11.5t21.5 -18.5t24 -26l77 -85l9 7z" />
    <glyph glyph-name="Eacute" unicode="&#xc9;" horiz-adv-x="641" 
d="M395 882q-14 8 -29 2.5t-26 -21.5q-6 -10 -14 -27.5t-16.5 -39t-18.5 -45.5t-20 -47l12 -8q16 19 34.5 37.5t35 35.5t29.5 31t19 24q11 17 9.5 33t-15.5 25zM537 637h-501v-17l99 -18v-567l-99 -18v-17h544l27 195l-10 4l-87 -112q-11 -14 -19.5 -24t-19 -16.5t-25 -9.5
t-36.5 -3h-175v273h53q45 0 66 -21.5t35 -73.5l9 -31h15v281h-15l-9 -33q-7 -26 -15 -44t-19.5 -29t-28 -16t-38.5 -5h-53v269h129q23 0 38.5 -4t27 -11.5t21.5 -18.5t24 -26l77 -85l9 7z" />
    <glyph glyph-name="Ecircumflex" unicode="&#xca;" horiz-adv-x="641" 
d="M319 788l112 -99l12 10l-113 177h-15l-121 -177l12 -10zM537 637h-501v-17l99 -18v-567l-99 -18v-17h544l27 195l-10 4l-87 -112q-11 -14 -19.5 -24t-19 -16.5t-25 -9.5t-36.5 -3h-175v273h53q45 0 66 -21.5t35 -73.5l9 -31h15v281h-15l-9 -33q-7 -26 -15 -44t-19.5 -29
t-28 -16t-38.5 -5h-53v269h129q23 0 38.5 -4t27 -11.5t21.5 -18.5t24 -26l77 -85l9 7z" />
    <glyph glyph-name="Edieresis" unicode="&#xcb;" horiz-adv-x="641" 
d="M398 742q23 0 38.5 16.5t15.5 37.5t-13.5 35t-34.5 14q-23 0 -38.5 -16.5t-15.5 -37.5t13.5 -35t34.5 -14zM228 742q23 0 38.5 16.5t15.5 37.5t-13.5 35t-34.5 14q-23 0 -38.5 -16.5t-15.5 -37.5t13.5 -35t34.5 -14zM537 637h-501v-17l99 -18v-567l-99 -18v-17h544
l27 195l-10 4l-87 -112q-11 -14 -19.5 -24t-19 -16.5t-25 -9.5t-36.5 -3h-175v273h53q45 0 66 -21.5t35 -73.5l9 -31h15v281h-15l-9 -33q-7 -26 -15 -44t-19.5 -29t-28 -16t-38.5 -5h-53v269h129q23 0 38.5 -4t27 -11.5t21.5 -18.5t24 -26l77 -85l9 7z" />
    <glyph glyph-name="Igrave" unicode="&#xcc;" horiz-adv-x="400" 
d="M234 704q-11 23 -21 47t-18.5 45.5t-16.5 39t-14 27.5q-10 16 -25.5 21.5t-29.5 -2.5q-14 -9 -15 -25t10 -33q6 -10 19 -24t29.5 -31t34 -35.5t34.5 -37.5zM250 35v567l102 18v17h-305v-17l103 -18v-567l-103 -18v-17h305v17z" />
    <glyph glyph-name="Iacute" unicode="&#xcd;" horiz-adv-x="400" 
d="M281 882q-14 8 -29 2.5t-26 -21.5q-6 -10 -14 -27.5t-16.5 -39t-18.5 -45.5t-20 -47l12 -8q16 19 34.5 37.5t35 35.5t29.5 31t19 24q11 17 9.5 33t-15.5 25zM250 35v567l102 18v17h-305v-17l103 -18v-567l-103 -18v-17h305v17z" />
    <glyph glyph-name="Icircumflex" unicode="&#xce;" horiz-adv-x="400" 
d="M202 790l112 -99l12 10l-113 177h-15l-121 -177l12 -10zM250 35v567l102 18v17h-305v-17l103 -18v-567l-103 -18v-17h305v17z" />
    <glyph glyph-name="Idieresis" unicode="&#xcf;" horiz-adv-x="400" 
d="M284 742q23 0 38.5 16.5t15.5 37.5t-13.5 35t-34.5 14q-23 0 -38.5 -16.5t-15.5 -37.5t13.5 -35t34.5 -14zM114 742q23 0 38.5 16.5t15.5 37.5t-13.5 35t-34.5 14q-23 0 -38.5 -16.5t-15.5 -37.5t13.5 -35t34.5 -14zM250 35v567l102 18v17h-305v-17l103 -18v-567
l-103 -18v-17h305v17z" />
    <glyph glyph-name="Eth" unicode="&#xd0;" horiz-adv-x="731" 
d="M691 319q0 67 -23.5 125.5t-68.5 101t-109.5 67t-146.5 24.5h-307v-17l99 -18v-255h-85v-33h85v-279l-99 -18v-17h301q78 0 143.5 24.5t112 67t72.5 101t26 126.5zM576 319q0 -78 -17.5 -132.5t-48 -88.5t-73 -49.5t-92.5 -15.5h-110v281h116v33h-116v257h88
q53 0 99.5 -15.5t80.5 -49.5t53.5 -88t19.5 -132z" />
    <glyph glyph-name="Ntilde" unicode="&#xd1;" horiz-adv-x="745" 
d="M239 718l13 -5q10 23 22.5 32t27.5 9t31 -5.5t33.5 -12t36 -12t37.5 -5.5q30 0 51 21.5t29 77.5l-13 6q-9 -23 -22 -32.5t-28 -9.5q-14 0 -30.5 5.5t-33.5 12t-35.5 12t-37.5 5.5q-30 0 -51 -21.5t-30 -77.5zM130 44l-79 -27v-17h191v17l-79 27v508h7l347 -456l75 -102
h28v599l79 27v17h-192v-17l79 -27v-409h-6l-266 351l-75 102h-188v-17l79 -26v-550z" />
    <glyph glyph-name="Ograve" unicode="&#xd2;" horiz-adv-x="706" 
d="M371 704q-11 23 -21 47t-18.5 45.5t-16.5 39t-14 27.5q-10 16 -25.5 21.5t-29.5 -2.5q-14 -9 -15 -25t10 -33q6 -10 19 -24t29.5 -31t34 -35.5t34.5 -37.5zM664 319q0 67 -20 127.5t-59 106.5t-97 72.5t-133 26.5q-72 0 -130 -26.5t-99.5 -72.5t-63.5 -106.5t-22 -127.5
q0 -68 20 -128.5t59 -106.5t97 -72.5t133 -26.5q72 0 130 26.5t99.5 72.5t63.5 106.5t22 128.5zM549 319q0 -78 -16 -136.5t-42.5 -97.5t-60 -58t-67.5 -19q-38 0 -75 15.5t-66.5 52t-48 96t-18.5 147.5t16 147.5t42.5 95.5t59.5 51.5t68 15.5q37 0 74.5 -19t67 -58t48 -97
t18.5 -136z" />
    <glyph glyph-name="Oacute" unicode="&#xd3;" horiz-adv-x="706" 
d="M429 882q-14 8 -29 2.5t-26 -21.5q-6 -10 -14 -27.5t-16.5 -39t-18.5 -45.5t-20 -47l12 -8q16 19 34.5 37.5t35 35.5t29.5 31t19 24q11 17 9.5 33t-15.5 25zM664 319q0 67 -20 127.5t-59 106.5t-97 72.5t-133 26.5q-72 0 -130 -26.5t-99.5 -72.5t-63.5 -106.5t-22 -127.5
q0 -68 20 -128.5t59 -106.5t97 -72.5t133 -26.5q72 0 130 26.5t99.5 72.5t63.5 106.5t22 128.5zM549 319q0 -78 -16 -136.5t-42.5 -97.5t-60 -58t-67.5 -19q-38 0 -75 15.5t-66.5 52t-48 96t-18.5 147.5t16 147.5t42.5 95.5t59.5 51.5t68 15.5q37 0 74.5 -19t67 -58t48 -97
t18.5 -136z" />
    <glyph glyph-name="Ocircumflex" unicode="&#xd4;" horiz-adv-x="706" 
d="M342 790l112 -99l12 10l-113 177h-15l-121 -177l12 -10zM664 319q0 67 -20 127.5t-59 106.5t-97 72.5t-133 26.5q-72 0 -130 -26.5t-99.5 -72.5t-63.5 -106.5t-22 -127.5q0 -68 20 -128.5t59 -106.5t97 -72.5t133 -26.5q72 0 130 26.5t99.5 72.5t63.5 106.5t22 128.5z
M549 319q0 -78 -16 -136.5t-42.5 -97.5t-60 -58t-67.5 -19q-38 0 -75 15.5t-66.5 52t-48 96t-18.5 147.5t16 147.5t42.5 95.5t59.5 51.5t68 15.5q37 0 74.5 -19t67 -58t48 -97t18.5 -136z" />
    <glyph glyph-name="Otilde" unicode="&#xd5;" horiz-adv-x="706" 
d="M212 718l13 -5q10 23 22.5 32t27.5 9t31 -5.5t33.5 -12t36 -12t37.5 -5.5q30 0 51 21.5t29 77.5l-13 6q-9 -23 -22 -32.5t-28 -9.5q-14 0 -30.5 5.5t-33.5 12t-35.5 12t-37.5 5.5q-30 0 -51 -21.5t-30 -77.5zM664 319q0 67 -20 127.5t-59 106.5t-97 72.5t-133 26.5
q-72 0 -130 -26.5t-99.5 -72.5t-63.5 -106.5t-22 -127.5q0 -68 20 -128.5t59 -106.5t97 -72.5t133 -26.5q72 0 130 26.5t99.5 72.5t63.5 106.5t22 128.5zM549 319q0 -78 -16 -136.5t-42.5 -97.5t-60 -58t-67.5 -19q-38 0 -75 15.5t-66.5 52t-48 96t-18.5 147.5t16 147.5
t42.5 95.5t59.5 51.5t68 15.5q37 0 74.5 -19t67 -58t48 -97t18.5 -136z" />
    <glyph glyph-name="Odieresis" unicode="&#xd6;" horiz-adv-x="706" 
d="M421 742q23 0 38.5 16.5t15.5 37.5t-13.5 35t-34.5 14q-23 0 -38.5 -16.5t-15.5 -37.5t13.5 -35t34.5 -14zM251 742q23 0 38.5 16.5t15.5 37.5t-13.5 35t-34.5 14q-23 0 -38.5 -16.5t-15.5 -37.5t13.5 -35t34.5 -14zM664 319q0 67 -20 127.5t-59 106.5t-97 72.5
t-133 26.5q-72 0 -130 -26.5t-99.5 -72.5t-63.5 -106.5t-22 -127.5q0 -68 20 -128.5t59 -106.5t97 -72.5t133 -26.5q72 0 130 26.5t99.5 72.5t63.5 106.5t22 128.5zM549 319q0 -78 -16 -136.5t-42.5 -97.5t-60 -58t-67.5 -19q-38 0 -75 15.5t-66.5 52t-48 96t-18.5 147.5
t16 147.5t42.5 95.5t59.5 51.5t68 15.5q37 0 74.5 -19t67 -58t48 -97t18.5 -136z" />
    <glyph glyph-name="multiply" unicode="&#xd7;" horiz-adv-x="505" 
d="M282 306l142 145l-33 31l-139 -144l-139 144l-33 -31l142 -145l-143 -146l33 -31l140 145l140 -145l33 31z" />
    <glyph glyph-name="Oslash" unicode="&#xd8;" horiz-adv-x="706" 
d="M664 319q0 66 -18.5 125t-56.5 104l65 74l-25 21l-62 -71q-39 38 -92 59t-120 21q-72 0 -130 -26.5t-99.5 -72.5t-63.5 -106.5t-22 -127.5q0 -72 22 -134.5t65 -109.5l-77 -87l25 -20q2 2 12 13.5t28.5 32t34.5 39.5q38 -32 87.5 -50t111.5 -18q72 0 130 26.5t99.5 72.5
t63.5 106.5t22 128.5zM184 140q-14 34 -21.5 78t-7.5 101q0 88 16 147.5t42.5 95.5t59.5 51.5t68 15.5q48 0 93 -30t76 -91zM524 475q25 -67 25 -156q0 -78 -16 -136.5t-42.5 -97.5t-60 -58t-67.5 -19q-45 0 -89 23t-75 78l24.5 27t60.5 68t78 88t78 88t60 68z" />
    <glyph glyph-name="Ugrave" unicode="&#xd9;" horiz-adv-x="736" 
d="M444 704q-11 23 -21 47t-18.5 45.5t-16.5 39t-14 27.5q-10 16 -25.5 21.5t-29.5 -2.5q-14 -9 -15 -25t10 -33q6 -10 19 -24t29.5 -31t34 -35.5t34.5 -37.5zM592 593v-366q0 -40 -9.5 -75.5t-30.5 -62t-53 -42t-77 -15.5q-49 0 -85.5 10t-61 32.5t-36.5 59t-12 89.5v379
l99 18v17h-300v-17l99 -18v-400q0 -111 67.5 -165t186.5 -54q53 0 98 16.5t78 46.5t51.5 70.5t18.5 88.5v388l79 27v17h-191v-17z" />
    <glyph glyph-name="Uacute" unicode="&#xda;" horiz-adv-x="736" 
d="M499 882q-14 8 -29 2.5t-26 -21.5q-6 -10 -14 -27.5t-16.5 -39t-18.5 -45.5t-20 -47l12 -8q16 19 34.5 37.5t35 35.5t29.5 31t19 24q11 17 9.5 33t-15.5 25zM592 593v-366q0 -40 -9.5 -75.5t-30.5 -62t-53 -42t-77 -15.5q-49 0 -85.5 10t-61 32.5t-36.5 59t-12 89.5v379
l99 18v17h-300v-17l99 -18v-400q0 -111 67.5 -165t186.5 -54q53 0 98 16.5t78 46.5t51.5 70.5t18.5 88.5v388l79 27v17h-191v-17z" />
    <glyph glyph-name="Ucircumflex" unicode="&#xdb;" horiz-adv-x="736" 
d="M417 790l112 -99l12 10l-113 177h-15l-121 -177l12 -10zM592 593v-366q0 -40 -9.5 -75.5t-30.5 -62t-53 -42t-77 -15.5q-49 0 -85.5 10t-61 32.5t-36.5 59t-12 89.5v379l99 18v17h-300v-17l99 -18v-400q0 -111 67.5 -165t186.5 -54q53 0 98 16.5t78 46.5t51.5 70.5
t18.5 88.5v388l79 27v17h-191v-17z" />
    <glyph glyph-name="Udieresis" unicode="&#xdc;" horiz-adv-x="736" 
d="M488 742q23 0 38.5 16.5t15.5 37.5t-13.5 35t-34.5 14q-23 0 -38.5 -16.5t-15.5 -37.5t13.5 -35t34.5 -14zM318 742q23 0 38.5 16.5t15.5 37.5t-13.5 35t-34.5 14q-23 0 -38.5 -16.5t-15.5 -37.5t13.5 -35t34.5 -14zM592 593v-366q0 -40 -9.5 -75.5t-30.5 -62t-53 -42
t-77 -15.5q-49 0 -85.5 10t-61 32.5t-36.5 59t-12 89.5v379l99 18v17h-300v-17l99 -18v-400q0 -111 67.5 -165t186.5 -54q53 0 98 16.5t78 46.5t51.5 70.5t18.5 88.5v388l79 27v17h-191v-17z" />
    <glyph glyph-name="Yacute" unicode="&#xdd;" horiz-adv-x="633" 
d="M462 882q-14 8 -29 2.5t-26 -21.5q-6 -10 -14 -27.5t-16.5 -39t-18.5 -45.5t-20 -47l12 -8q16 19 34.5 37.5t35 35.5t29.5 31t19 24q11 17 9.5 33t-15.5 25zM566 593l79 27v17h-205v-17l73 -24l-158 -279l-151 285l86 18v17h-292v-17l88 -23l192 -322v-240l-102 -18v-17
h304v17l-102 18v257z" />
    <glyph glyph-name="Thorn" unicode="&#xde;" horiz-adv-x="592" 
d="M554 323q0 37 -14.5 69t-43 55.5t-71.5 37t-100 13.5q-21 0 -45 -2.5t-45 -6.5v112l99 18v17h-298v-17l99 -18v-567l-99 -18v-17h298v17l-99 18v112q24 -3 52 -5.5t53 -2.5q54 0 94.5 16t67 42.5t39.5 59.5t13 67zM442 319q0 -78 -35.5 -115.5t-104.5 -37.5
q-23 0 -38 1.5t-29 3.5v294q15 3 32.5 5t36.5 2q67 0 102.5 -40.5t35.5 -112.5z" />
    <glyph glyph-name="germandbls" unicode="&#xdf;" horiz-adv-x="580" 
d="M543 140q0 49 -40.5 104.5t-139.5 117.5v7q72 51 108 105.5t36 100.5q0 30 -10 60t-30.5 53.5t-51 38t-71.5 14.5t-77 -17.5t-63 -41.5q-41 -35 -64.5 -83.5t-23.5 -121.5v-31l-90 -26v-18h90v-371l-66 -17v-14h192v14l-41 17v514q0 85 25 118t72 33q28 0 49.5 -11.5
t35.5 -31t21.5 -44.5t7.5 -53t-6.5 -54.5t-22.5 -54.5t-41.5 -59t-62.5 -69v-7q55 -36 91.5 -67.5t58.5 -59.5t31.5 -52.5t9.5 -47.5q0 -35 -18.5 -56.5t-44.5 -21.5q-28 0 -43 15q8 38 -6 62.5t-42 24.5q-20 0 -32.5 -13.5t-12.5 -33.5q0 -33 34.5 -55t91.5 -22q32 0 59 12
t46.5 32.5t30 49t10.5 61.5z" />
    <glyph glyph-name="agrave" unicode="&#xe0;" horiz-adv-x="468" 
d="M269 518q-11 23 -21 47t-18.5 45.5t-16.5 39t-14 27.5q-10 16 -25.5 21.5t-29.5 -2.5q-14 -9 -15 -25t10 -33q6 -10 19 -24t29.5 -31t34 -35.5t34.5 -37.5zM388 326q0 68 -30 102.5t-96 34.5q-36 0 -71.5 -9.5t-64 -25t-46 -36.5t-17.5 -45q0 -20 12.5 -34.5t35.5 -14.5
q21 0 34 14.5t13 33.5q0 14 -7 29t-24 29q39 15 74 15q45 0 74 -25.5t29 -76.5v-75q-57 -8 -104 -21t-81.5 -32.5t-53.5 -45.5t-19 -60q0 -46 29 -72.5t78 -26.5q41 0 78.5 20.5t72.5 55.5l4 -2q2 -40 17 -57t44 -17q13 0 28.5 3t30 7.5t27 9.5t19.5 10l-2 11
q-45 -5 -64.5 2.5t-19.5 29.5v269zM304 74q-56 -30 -98 -30q-33 0 -52.5 18.5t-19.5 50.5q0 20 8.5 38.5t28.5 32t52.5 21.5t80.5 8v-139z" />
    <glyph glyph-name="aacute" unicode="&#xe1;" horiz-adv-x="468" 
d="M324 696q-14 8 -29 2.5t-26 -21.5q-6 -10 -14 -27.5t-16.5 -39t-18.5 -45.5t-20 -47l12 -8q16 19 34.5 37.5t35 35.5t29.5 31t19 24q11 17 9.5 33t-15.5 25zM388 326q0 68 -30 102.5t-96 34.5q-36 0 -71.5 -9.5t-64 -25t-46 -36.5t-17.5 -45q0 -20 12.5 -34.5t35.5 -14.5
q21 0 34 14.5t13 33.5q0 14 -7 29t-24 29q39 15 74 15q45 0 74 -25.5t29 -76.5v-75q-57 -8 -104 -21t-81.5 -32.5t-53.5 -45.5t-19 -60q0 -46 29 -72.5t78 -26.5q41 0 78.5 20.5t72.5 55.5l4 -2q2 -40 17 -57t44 -17q13 0 28.5 3t30 7.5t27 9.5t19.5 10l-2 11
q-45 -5 -64.5 2.5t-19.5 29.5v269zM304 74q-56 -30 -98 -30q-33 0 -52.5 18.5t-19.5 50.5q0 20 8.5 38.5t28.5 32t52.5 21.5t80.5 8v-139z" />
    <glyph glyph-name="acircumflex" unicode="&#xe2;" horiz-adv-x="468" 
d="M243 604l112 -99l12 10l-113 177h-15l-121 -177l12 -10zM388 326q0 68 -30 102.5t-96 34.5q-36 0 -71.5 -9.5t-64 -25t-46 -36.5t-17.5 -45q0 -20 12.5 -34.5t35.5 -14.5q21 0 34 14.5t13 33.5q0 14 -7 29t-24 29q39 15 74 15q45 0 74 -25.5t29 -76.5v-75
q-57 -8 -104 -21t-81.5 -32.5t-53.5 -45.5t-19 -60q0 -46 29 -72.5t78 -26.5q41 0 78.5 20.5t72.5 55.5l4 -2q2 -40 17 -57t44 -17q13 0 28.5 3t30 7.5t27 9.5t19.5 10l-2 11q-45 -5 -64.5 2.5t-19.5 29.5v269zM304 74q-56 -30 -98 -30q-33 0 -52.5 18.5t-19.5 50.5
q0 20 8.5 38.5t28.5 32t52.5 21.5t80.5 8v-139z" />
    <glyph glyph-name="atilde" unicode="&#xe3;" horiz-adv-x="468" 
d="M96 532l13 -5q10 23 22.5 32t27.5 9t31 -5.5t33.5 -12t36 -12t37.5 -5.5q30 0 51 21.5t29 77.5l-13 6q-9 -23 -22 -32.5t-28 -9.5q-14 0 -30.5 5.5t-33.5 12t-35.5 12t-37.5 5.5q-30 0 -51 -21.5t-30 -77.5zM388 326q0 68 -30 102.5t-96 34.5q-36 0 -71.5 -9.5t-64 -25
t-46 -36.5t-17.5 -45q0 -20 12.5 -34.5t35.5 -14.5q21 0 34 14.5t13 33.5q0 14 -7 29t-24 29q39 15 74 15q45 0 74 -25.5t29 -76.5v-75q-57 -8 -104 -21t-81.5 -32.5t-53.5 -45.5t-19 -60q0 -46 29 -72.5t78 -26.5q41 0 78.5 20.5t72.5 55.5l4 -2q2 -40 17 -57t44 -17
q13 0 28.5 3t30 7.5t27 9.5t19.5 10l-2 11q-45 -5 -64.5 2.5t-19.5 29.5v269zM304 74q-56 -30 -98 -30q-33 0 -52.5 18.5t-19.5 50.5q0 20 8.5 38.5t28.5 32t52.5 21.5t80.5 8v-139z" />
    <glyph glyph-name="adieresis" unicode="&#xe4;" horiz-adv-x="468" 
d="M305 556q23 0 38.5 16.5t15.5 37.5t-13.5 35t-34.5 14q-23 0 -38.5 -16.5t-15.5 -37.5t13.5 -35t34.5 -14zM135 556q23 0 38.5 16.5t15.5 37.5t-13.5 35t-34.5 14q-23 0 -38.5 -16.5t-15.5 -37.5t13.5 -35t34.5 -14zM388 326q0 68 -30 102.5t-96 34.5q-36 0 -71.5 -9.5
t-64 -25t-46 -36.5t-17.5 -45q0 -20 12.5 -34.5t35.5 -14.5q21 0 34 14.5t13 33.5q0 14 -7 29t-24 29q39 15 74 15q45 0 74 -25.5t29 -76.5v-75q-57 -8 -104 -21t-81.5 -32.5t-53.5 -45.5t-19 -60q0 -46 29 -72.5t78 -26.5q41 0 78.5 20.5t72.5 55.5l4 -2q2 -40 17 -57
t44 -17q13 0 28.5 3t30 7.5t27 9.5t19.5 10l-2 11q-45 -5 -64.5 2.5t-19.5 29.5v269zM304 74q-56 -30 -98 -30q-33 0 -52.5 18.5t-19.5 50.5q0 20 8.5 38.5t28.5 32t52.5 21.5t80.5 8v-139z" />
    <glyph glyph-name="aring" unicode="&#xe5;" horiz-adv-x="468" 
d="M331 592q0 37 -23.5 63t-65.5 26q-21 0 -38.5 -7.5t-29.5 -20t-19 -28.5t-7 -33q0 -37 23.5 -63t65.5 -26q21 0 38.5 7.5t29.5 20t19 28.5t7 33zM388 326q0 68 -30 102.5t-96 34.5q-36 0 -71.5 -9.5t-64 -25t-46 -36.5t-17.5 -45q0 -20 12.5 -34.5t35.5 -14.5
q21 0 34 14.5t13 33.5q0 14 -7 29t-24 29q39 15 74 15q45 0 74 -25.5t29 -76.5v-75q-57 -8 -104 -21t-81.5 -32.5t-53.5 -45.5t-19 -60q0 -46 29 -72.5t78 -26.5q41 0 78.5 20.5t72.5 55.5l4 -2q2 -40 17 -57t44 -17q13 0 28.5 3t30 7.5t27 9.5t19.5 10l-2 11
q-45 -5 -64.5 2.5t-19.5 29.5v269zM286 592q0 -72 -46 -72q-22 0 -35 18t-13 53q0 72 46 72q48 0 48 -71zM304 74q-56 -30 -98 -30q-33 0 -52.5 18.5t-19.5 50.5q0 20 8.5 38.5t28.5 32t52.5 21.5t80.5 8v-139z" />
    <glyph glyph-name="ae" unicode="&#xe6;" horiz-adv-x="747" 
d="M710 270q0 42 -11.5 77.5t-35 61.5t-58.5 40.5t-81 14.5q-44 0 -82 -16.5t-67 -45.5q-27 62 -113 62q-36 0 -71.5 -9.5t-64 -25t-46 -36.5t-17.5 -45q0 -20 12.5 -34.5t35.5 -14.5q21 0 34 14.5t13 33.5q0 14 -7 29t-24 29q39 15 73 15q46 0 74.5 -26t28.5 -77v-74
q-57 -8 -104 -21t-81 -32.5t-53 -45.5t-19 -60q0 -46 28.5 -72.5t77.5 -26.5t94.5 29t87.5 71l4 -1q29 -47 76.5 -73t108.5 -26q48 0 91.5 22.5t90.5 66.5l-6 13q-43 -23 -76.5 -31.5t-70.5 -8.5q-42 0 -72 16t-49 45t-28 70.5t-9 91.5h316zM517 443q47 0 69.5 -39.5
t27.5 -104.5l-219 -7q2 34 12.5 61.5t27 47.5t37.5 31t45 11zM331 97q-31 -23 -60.5 -37.5t-64.5 -14.5q-34 0 -53.5 18t-19.5 51q0 20 8.5 38.5t28.5 32t52.5 21.5t80.5 8q1 -64 28 -117z" />
    <glyph glyph-name="ccedilla" unicode="&#xe7;" horiz-adv-x="454" 
d="M125 235q0 54 13.5 92t36.5 62.5t52 36t61 11.5q23 0 42 -4q-10 -11 -16 -26.5t-6 -32.5q0 -23 15 -41.5t42 -18.5q23 0 38.5 17t15.5 43q0 38 -37.5 64t-100.5 26q-54 0 -99 -19t-77.5 -52.5t-51 -79t-18.5 -97.5t16 -95t45.5 -73.5t70 -47t88.5 -16.5q7 0 13.5 0.5
t13.5 1.5l-109 -91l15 -17q8 2 14.5 3.5t14.5 1.5q29 0 43 -17t14 -43q0 -29 -13 -43.5t-36 -14.5q-15 0 -27 7q4 4 7 10t3 13q0 12 -6.5 21t-20.5 9t-21.5 -9t-7.5 -23q0 -20 17.5 -33t52.5 -13q47 0 76.5 26t29.5 67q0 35 -23 58t-59 28l91 76q26 11 49.5 28.5t43.5 39.5
l-5 13q-35 -17 -69.5 -27t-71.5 -10q-38 0 -68 14.5t-50 40t-30.5 60t-10.5 74.5z" />
    <glyph glyph-name="egrave" unicode="&#xe8;" horiz-adv-x="479" 
d="M283 518q-11 23 -21 47t-18.5 45.5t-16.5 39t-14 27.5q-10 16 -25.5 21.5t-29.5 -2.5q-14 -9 -15 -25t10 -33q6 -10 19 -24t29.5 -31t34 -35.5t34.5 -37.5zM442 270q0 42 -11.5 77.5t-35 61.5t-58.5 40.5t-81 14.5q-47 0 -87 -19t-70 -52t-47 -78t-17 -98q0 -52 16 -95
t45.5 -73.5t69.5 -47.5t88 -17q49 0 92.5 22.5t90.5 67.5l-6 12q-43 -22 -76.5 -31t-70.5 -9q-42 0 -72 16.5t-49 46t-28 70.5t-9 91h316zM127 291q2 34 12.5 62t27 47.5t37.5 30.5t45 11q47 0 69.5 -39.5t27.5 -104.5z" />
    <glyph glyph-name="eacute" unicode="&#xe9;" horiz-adv-x="479" 
d="M328 696q-14 8 -29 2.5t-26 -21.5q-6 -10 -14 -27.5t-16.5 -39t-18.5 -45.5t-20 -47l12 -8q16 19 34.5 37.5t35 35.5t29.5 31t19 24q11 17 9.5 33t-15.5 25zM442 270q0 42 -11.5 77.5t-35 61.5t-58.5 40.5t-81 14.5q-47 0 -87 -19t-70 -52t-47 -78t-17 -98q0 -52 16 -95
t45.5 -73.5t69.5 -47.5t88 -17q49 0 92.5 22.5t90.5 67.5l-6 12q-43 -22 -76.5 -31t-70.5 -9q-42 0 -72 16.5t-49 46t-28 70.5t-9 91h316zM127 291q2 34 12.5 62t27 47.5t37.5 30.5t45 11q47 0 69.5 -39.5t27.5 -104.5z" />
    <glyph glyph-name="ecircumflex" unicode="&#xea;" horiz-adv-x="479" 
d="M252 604l112 -99l12 10l-113 177h-15l-121 -177l12 -10zM442 270q0 42 -11.5 77.5t-35 61.5t-58.5 40.5t-81 14.5q-47 0 -87 -19t-70 -52t-47 -78t-17 -98q0 -52 16 -95t45.5 -73.5t69.5 -47.5t88 -17q49 0 92.5 22.5t90.5 67.5l-6 12q-43 -22 -76.5 -31t-70.5 -9
q-42 0 -72 16.5t-49 46t-28 70.5t-9 91h316zM127 291q2 34 12.5 62t27 47.5t37.5 30.5t45 11q47 0 69.5 -39.5t27.5 -104.5z" />
    <glyph glyph-name="edieresis" unicode="&#xeb;" horiz-adv-x="479" 
d="M337 556q23 0 38.5 16.5t15.5 37.5t-13.5 35t-34.5 14q-23 0 -38.5 -16.5t-15.5 -37.5t13.5 -35t34.5 -14zM167 556q23 0 38.5 16.5t15.5 37.5t-13.5 35t-34.5 14q-23 0 -38.5 -16.5t-15.5 -37.5t13.5 -35t34.5 -14zM442 270q0 42 -11.5 77.5t-35 61.5t-58.5 40.5
t-81 14.5q-47 0 -87 -19t-70 -52t-47 -78t-17 -98q0 -52 16 -95t45.5 -73.5t69.5 -47.5t88 -17q49 0 92.5 22.5t90.5 67.5l-6 12q-43 -22 -76.5 -31t-70.5 -9q-42 0 -72 16.5t-49 46t-28 70.5t-9 91h316zM127 291q2 34 12.5 62t27 47.5t37.5 30.5t45 11q47 0 69.5 -39.5
t27.5 -104.5z" />
    <glyph glyph-name="igrave" unicode="&#xec;" horiz-adv-x="281" 
d="M170 518q-11 23 -21 47t-18.5 45.5t-16.5 39t-14 27.5q-10 16 -25.5 21.5t-29.5 -2.5q-14 -9 -15 -25t10 -33q6 -10 19 -24t29.5 -31t34 -35.5t34.5 -37.5zM105 31l-70 -18v-13h221v13l-67 18v431l-4 3l-146 -36v-9l66 -42v-347z" />
    <glyph glyph-name="iacute" unicode="&#xed;" horiz-adv-x="281" 
d="M226 696q-14 8 -29 2.5t-26 -21.5q-6 -10 -14 -27.5t-16.5 -39t-18.5 -45.5t-20 -47l12 -8q16 19 34.5 37.5t35 35.5t29.5 31t19 24q11 17 9.5 33t-15.5 25zM105 31l-70 -18v-13h221v13l-67 18v431l-4 3l-146 -36v-9l66 -42v-347z" />
    <glyph glyph-name="icircumflex" unicode="&#xee;" horiz-adv-x="281" 
d="M141 604l112 -99l12 10l-113 177h-15l-121 -177l12 -10zM105 31l-70 -18v-13h221v13l-67 18v431l-4 3l-146 -36v-9l66 -42v-347z" />
    <glyph glyph-name="idieresis" unicode="&#xef;" horiz-adv-x="281" 
d="M221 556q23 0 38.5 16.5t15.5 37.5t-13.5 35t-34.5 14q-23 0 -38.5 -16.5t-15.5 -37.5t13.5 -35t34.5 -14zM51 556q23 0 38.5 16.5t15.5 37.5t-13.5 35t-34.5 14q-23 0 -38.5 -16.5t-15.5 -37.5t13.5 -35t34.5 -14zM105 31l-70 -18v-13h221v13l-67 18v431l-4 3l-146 -36
v-9l66 -42v-347z" />
    <glyph glyph-name="eth" unicode="&#xf0;" horiz-adv-x="531" 
d="M496 288q0 94 -37.5 178t-101.5 150l13 5.5t28.5 12t28 12l12.5 5.5l-11 28l-95 -40q-41 35 -88 61.5t-100 40.5l-8 -17q81 -45 136 -111l-83 -36l11 -29l92 40q26 -35 45.5 -74.5t33.5 -81.5l-3 -2q-23 14 -49.5 23.5t-62.5 9.5q-49 0 -89.5 -19.5t-70 -52t-46 -76
t-16.5 -91.5q0 -51 14 -95t41.5 -76.5t68.5 -50.5t94 -18q55 0 100 23t76.5 63.5t49 96.5t17.5 121zM399 253q0 -109 -31.5 -173.5t-88.5 -64.5q-28 0 -54.5 13.5t-47.5 39t-33.5 63.5t-12.5 86q0 49 13 87.5t34.5 65t49.5 40.5t58 14q28 0 49.5 -4.5t44.5 -13.5
q19 -73 19 -153z" />
    <glyph glyph-name="ntilde" unicode="&#xf1;" horiz-adv-x="558" 
d="M131 532l13 -5q10 23 22.5 32t27.5 9t31 -5.5t33.5 -12t36 -12t37.5 -5.5q30 0 51 21.5t29 77.5l-13 6q-9 -23 -22 -32.5t-28 -9.5q-14 0 -30.5 5.5t-33.5 12t-35.5 12t-37.5 5.5q-30 0 -51 -21.5t-30 -77.5zM475 325q0 27 -6.5 52t-21 44.5t-38 31t-57.5 11.5
q-81 0 -171 -84l-4 2l2 80l-4 3l-140 -36v-9l65 -42v-347l-66 -18v-13h213v13l-62 18v332q30 17 55 24t57 7q51 0 72.5 -27.5t21.5 -84.5v-251l-63 -18v-13h213v13l-66 18v294z" />
    <glyph glyph-name="ograve" unicode="&#xf2;" horiz-adv-x="519" 
d="M302 518q-11 23 -21 47t-18.5 45.5t-16.5 39t-14 27.5q-10 16 -25.5 21.5t-29.5 -2.5q-14 -9 -15 -25t10 -33q6 -10 19 -24t29.5 -31t34 -35.5t34.5 -37.5zM484 227q0 51 -14 94.5t-41 75t-67.5 49.5t-94.5 18q-55 0 -98 -19.5t-73 -52.5t-45.5 -76.5t-15.5 -91.5
q0 -51 14 -95t42 -76.5t68.5 -50.5t93.5 -18q55 0 98 20t72.5 53.5t45 77.5t15.5 92zM387 227q0 -113 -34 -167t-90 -54q-26 0 -50 13t-42 39.5t-28.5 67t-10.5 95.5q0 112 36 166.5t88 54.5q56 0 93.5 -53t37.5 -162z" />
    <glyph glyph-name="oacute" unicode="&#xf3;" horiz-adv-x="519" 
d="M340 696q-14 8 -29 2.5t-26 -21.5q-6 -10 -14 -27.5t-16.5 -39t-18.5 -45.5t-20 -47l12 -8q16 19 34.5 37.5t35 35.5t29.5 31t19 24q11 17 9.5 33t-15.5 25zM484 227q0 51 -14 94.5t-41 75t-67.5 49.5t-94.5 18q-55 0 -98 -19.5t-73 -52.5t-45.5 -76.5t-15.5 -91.5
q0 -51 14 -95t42 -76.5t68.5 -50.5t93.5 -18q55 0 98 20t72.5 53.5t45 77.5t15.5 92zM387 227q0 -113 -34 -167t-90 -54q-26 0 -50 13t-42 39.5t-28.5 67t-10.5 95.5q0 112 36 166.5t88 54.5q56 0 93.5 -53t37.5 -162z" />
    <glyph glyph-name="ocircumflex" unicode="&#xf4;" horiz-adv-x="519" 
d="M258 604l112 -99l12 10l-113 177h-15l-121 -177l12 -10zM484 227q0 51 -14 94.5t-41 75t-67.5 49.5t-94.5 18q-55 0 -98 -19.5t-73 -52.5t-45.5 -76.5t-15.5 -91.5q0 -51 14 -95t42 -76.5t68.5 -50.5t93.5 -18q55 0 98 20t72.5 53.5t45 77.5t15.5 92zM387 227
q0 -113 -34 -167t-90 -54q-26 0 -50 13t-42 39.5t-28.5 67t-10.5 95.5q0 112 36 166.5t88 54.5q56 0 93.5 -53t37.5 -162z" />
    <glyph glyph-name="otilde" unicode="&#xf5;" horiz-adv-x="519" 
d="M115 532l13 -5q10 23 22.5 32t27.5 9t31 -5.5t33.5 -12t36 -12t37.5 -5.5q30 0 51 21.5t29 77.5l-13 6q-9 -23 -22 -32.5t-28 -9.5q-14 0 -30.5 5.5t-33.5 12t-35.5 12t-37.5 5.5q-30 0 -51 -21.5t-30 -77.5zM484 227q0 51 -14 94.5t-41 75t-67.5 49.5t-94.5 18
q-55 0 -98 -19.5t-73 -52.5t-45.5 -76.5t-15.5 -91.5q0 -51 14 -95t42 -76.5t68.5 -50.5t93.5 -18q55 0 98 20t72.5 53.5t45 77.5t15.5 92zM387 227q0 -113 -34 -167t-90 -54q-26 0 -50 13t-42 39.5t-28.5 67t-10.5 95.5q0 112 36 166.5t88 54.5q56 0 93.5 -53t37.5 -162z
" />
    <glyph glyph-name="odieresis" unicode="&#xf6;" horiz-adv-x="519" 
d="M340 556q23 0 38.5 16.5t15.5 37.5t-13.5 35t-34.5 14q-23 0 -38.5 -16.5t-15.5 -37.5t13.5 -35t34.5 -14zM170 556q23 0 38.5 16.5t15.5 37.5t-13.5 35t-34.5 14q-23 0 -38.5 -16.5t-15.5 -37.5t13.5 -35t34.5 -14zM484 227q0 51 -14 94.5t-41 75t-67.5 49.5t-94.5 18
q-55 0 -98 -19.5t-73 -52.5t-45.5 -76.5t-15.5 -91.5q0 -51 14 -95t42 -76.5t68.5 -50.5t93.5 -18q55 0 98 20t72.5 53.5t45 77.5t15.5 92zM387 227q0 -113 -34 -167t-90 -54q-26 0 -50 13t-42 39.5t-28.5 67t-10.5 95.5q0 112 36 166.5t88 54.5q56 0 93.5 -53t37.5 -162z
" />
    <glyph glyph-name="divide" unicode="&#xf7;" horiz-adv-x="505" 
d="M252 515q-23 0 -39 -16t-16 -39t16 -39t39 -16t39 16t16 39t-16 39t-39 16zM464 284v45h-423v-45h423zM252 208q-23 0 -39 -16t-16 -39t16 -39t39 -16t39 16t16 39t-16 39t-39 16z" />
    <glyph glyph-name="oslash" unicode="&#xf8;" horiz-adv-x="519" 
d="M428 398l7 9t16 19.5t16 19l7 8.5l-25 21l-45 -54q-26 20 -60.5 31.5t-76.5 11.5q-55 0 -98 -19.5t-73 -52.5t-45.5 -76.5t-15.5 -91.5q0 -53 14.5 -97.5t43.5 -76.5l-48 -57l25 -20l46 55q26 -21 60.5 -32.5t76.5 -11.5q55 0 98 20t72.5 53.5t45 77.5t15.5 92
q0 107 -56 171zM361 370l-215 -257q-14 47 -14 108q0 112 36 166.5t88 54.5q33 0 60 -18t45 -54zM387 227q0 -113 -34 -167t-90 -54q-31 0 -58 18t-46 55l215 256q6 -23 9.5 -49.5t3.5 -58.5z" />
    <glyph glyph-name="ugrave" unicode="&#xf9;" horiz-adv-x="544" 
d="M300 518q-11 23 -21 47t-18.5 45.5t-16.5 39t-14 27.5q-10 16 -25.5 21.5t-29.5 -2.5q-14 -9 -15 -25t10 -33q6 -10 19 -24t29.5 -31t34 -35.5t34.5 -37.5zM463 56v406l-4 3l-146 -36v-9l66 -35v-300q-30 -17 -55 -24.5t-57 -7.5q-50 0 -71.5 27.5t-21.5 85.5v296l-4 3
l-146 -36v-9l65 -35v-262q0 -27 6.5 -52t21 -44.5t38 -31t57.5 -11.5q81 0 171 84l4 -2l-2 -79l4 -2l140 35v10z" />
    <glyph glyph-name="uacute" unicode="&#xfa;" horiz-adv-x="544" 
d="M354 696q-14 8 -29 2.5t-26 -21.5q-6 -10 -14 -27.5t-16.5 -39t-18.5 -45.5t-20 -47l12 -8q16 19 34.5 37.5t35 35.5t29.5 31t19 24q11 17 9.5 33t-15.5 25zM463 56v406l-4 3l-146 -36v-9l66 -35v-300q-30 -17 -55 -24.5t-57 -7.5q-50 0 -71.5 27.5t-21.5 85.5v296l-4 3
l-146 -36v-9l65 -35v-262q0 -27 6.5 -52t21 -44.5t38 -31t57.5 -11.5q81 0 171 84l4 -2l-2 -79l4 -2l140 35v10z" />
    <glyph glyph-name="ucircumflex" unicode="&#xfb;" horiz-adv-x="544" 
d="M267 604l112 -99l12 10l-113 177h-15l-121 -177l12 -10zM463 56v406l-4 3l-146 -36v-9l66 -35v-300q-30 -17 -55 -24.5t-57 -7.5q-50 0 -71.5 27.5t-21.5 85.5v296l-4 3l-146 -36v-9l65 -35v-262q0 -27 6.5 -52t21 -44.5t38 -31t57.5 -11.5q81 0 171 84l4 -2l-2 -79l4 -2
l140 35v10z" />
    <glyph glyph-name="udieresis" unicode="&#xfc;" horiz-adv-x="544" 
d="M339 556q23 0 38.5 16.5t15.5 37.5t-13.5 35t-34.5 14q-23 0 -38.5 -16.5t-15.5 -37.5t13.5 -35t34.5 -14zM169 556q23 0 38.5 16.5t15.5 37.5t-13.5 35t-34.5 14q-23 0 -38.5 -16.5t-15.5 -37.5t13.5 -35t34.5 -14zM463 56v406l-4 3l-146 -36v-9l66 -35v-300
q-30 -17 -55 -24.5t-57 -7.5q-50 0 -71.5 27.5t-21.5 85.5v296l-4 3l-146 -36v-9l65 -35v-262q0 -27 6.5 -52t21 -44.5t38 -31t57.5 -11.5q81 0 171 84l4 -2l-2 -79l4 -2l140 35v10z" />
    <glyph glyph-name="yacute" unicode="&#xfd;" horiz-adv-x="490" 
d="M369 696q-14 8 -29 2.5t-26 -21.5q-6 -10 -14 -27.5t-16.5 -39t-18.5 -45.5t-20 -47l12 -8q16 19 34.5 37.5t35 35.5t29.5 31t19 24q11 17 9.5 33t-15.5 25zM431 404l68 31v13h-171v-13l63 -29l-108 -303h-5l-117 311l70 21v13h-228v-13l61 -21l174 -423l-29 -66
q-23 -50 -52 -78q-16 21 -31.5 34t-38.5 13q-21 0 -36 -14t-15 -34t16 -38t51 -18q82 0 131 122z" />
    <glyph glyph-name="thorn" unicode="&#xfe;" horiz-adv-x="527" 
d="M489 237q0 52 -14 93.5t-38 71t-56.5 45.5t-70.5 16q-50 0 -87 -19.5t-62 -46.5l-4 3v338l-4 3l-154 -39v-10l73 -43v-822l-66 -24v-13h227v13l-76 24v168q21 -5 42.5 -8t45.5 -3q57 0 102 21t76.5 56.5t48.5 81t17 94.5zM400 217q0 -54 -11 -93t-29.5 -64.5t-41.5 -38
t-47 -12.5q-33 0 -60.5 12.5t-53.5 35.5v309q19 14 46 24.5t52 10.5q69 0 107 -51t38 -133z" />
    <glyph glyph-name="ydieresis" unicode="&#xff;" horiz-adv-x="490" 
d="M353 556q23 0 38.5 16.5t15.5 37.5t-13.5 35t-34.5 14q-23 0 -38.5 -16.5t-15.5 -37.5t13.5 -35t34.5 -14zM183 556q23 0 38.5 16.5t15.5 37.5t-13.5 35t-34.5 14q-23 0 -38.5 -16.5t-15.5 -37.5t13.5 -35t34.5 -14zM431 404l68 31v13h-171v-13l63 -29l-108 -303h-5
l-117 311l70 21v13h-228v-13l61 -21l174 -423l-29 -66q-23 -50 -52 -78q-16 21 -31.5 34t-38.5 13q-21 0 -36 -14t-15 -34t16 -38t51 -18q82 0 131 122z" />
    <glyph glyph-name="dotlessi" unicode="&#x131;" horiz-adv-x="281" 
d="M105 31l-70 -18v-13h221v13l-67 18v431l-4 3l-146 -36v-9l66 -42v-347z" />
    <glyph glyph-name="Lslash" unicode="&#x141;" horiz-adv-x="610" 
d="M582 195l-9 4l-87 -112q-11 -14 -19.5 -24t-19 -16.5t-25 -9.5t-36.5 -3h-150v274l132 35l-9 32l-123 -33v260l99 18v17h-299v-17l99 -18v-288l-12.5 -3t-27.5 -7t-27.5 -7.5l-12.5 -3.5l8 -32l11 3t24.5 7t25 6.5l11.5 2.5v-245l-99 -18v-17h520z" />
    <glyph glyph-name="lslash" unicode="&#x142;" horiz-adv-x="309" 
d="M203 354l105 28l-9 32l-96 -26v351l-4 2l-154 -39v-10l73 -43v-284l-89 -24l8 -32l81 22v-300l-70 -18v-13h221v13l-66 18v323z" />
    <glyph glyph-name="OE" unicode="&#x152;" horiz-adv-x="1002" 
d="M968 195l-9 4l-87 -112q-11 -14 -19.5 -24t-19 -16.5t-25 -9.5t-36.5 -3h-176v273h53q23 0 39 -5t27.5 -16.5t20 -29.5t15.5 -44l8 -31h16v281h-15l-9 -33q-7 -26 -15.5 -44t-20 -29t-27.5 -16t-39 -5h-53v269h129q23 0 38.5 -4t27 -11.5t21.5 -18.5t24 -26l77 -85l10 7
l-24 171h-505q-78 0 -143.5 -24.5t-112 -67t-72.5 -101t-26 -125.5q0 -68 23.5 -126.5t68.5 -101t109.5 -67t146.5 -24.5h553zM155 319q0 78 17 132t48 88t73.5 49.5t92.5 15.5h110v-571h-87q-54 0 -100 15.5t-80.5 49.5t-54 88.5t-19.5 132.5z" />
    <glyph glyph-name="oe" unicode="&#x153;" horiz-adv-x="836" 
d="M483 270h316q0 42 -11.5 77.5t-35 61.5t-58.5 40.5t-81 14.5q-53 0 -97 -23.5t-73 -65.5q-26 42 -69.5 65.5t-106.5 23.5q-55 0 -98 -19.5t-73 -52t-45.5 -76t-15.5 -91.5q0 -51 14 -95t41.5 -76.5t68.5 -50.5t94 -18q62 0 107.5 24.5t74.5 65.5q28 -42 73.5 -66
t103.5 -24q48 0 91.5 22.5t90.5 66.5l-6 13q-43 -23 -76.5 -31.5t-70.5 -8.5q-42 0 -72 16t-49 45t-28 70.5t-9 91.5zM484 292q2 34 12.5 61.5t27 47.5t37.5 31t45 11q47 0 69.5 -39.5t27.5 -104.5zM387 228q0 -113 -34 -167t-91 -54q-26 0 -49.5 13t-41.5 39.5t-28.5 67
t-10.5 94.5q0 112 36 166.5t88 54.5q57 0 94 -52.5t37 -161.5z" />
    <glyph glyph-name="Scaron" unicode="&#x160;" horiz-adv-x="525" 
d="M267 791l-113 100l-12 -10l114 -177h15l120 177l-12 10zM474 192q0 55 -28 92.5t-89 66.5q-28 14 -56.5 25t-54.5 23q-54 23 -73.5 51.5t-19.5 64.5q0 51 28 79.5t70 28.5q51 0 94 -38t86 -124l16 2l-17 192h-14l-41 -34q-23 14 -48.5 22.5t-57.5 8.5q-35 0 -70 -11
t-63 -33.5t-46 -57t-18 -82.5q0 -56 24 -93.5t78 -63.5q23 -11 48 -21l50 -20q36 -15 59.5 -29.5t37 -29.5t19 -33t5.5 -41q0 -57 -34.5 -90t-89.5 -33q-27 0 -52.5 8.5t-51 30t-50.5 58t-49 92.5l-16 -2l12 -219h15l40 34q29 -14 69 -22.5t78 -8.5q34 0 71.5 13t68 38.5
t50.5 64.5t20 91z" />
    <glyph glyph-name="scaron" unicode="&#x161;" horiz-adv-x="390" 
d="M201 605l-113 100l-12 -10l114 -177h15l120 177l-12 10zM353 137q0 30 -11.5 51.5t-29.5 37t-41 26.5t-46 21q-21 9 -41 18t-35.5 20t-25 26t-9.5 35q0 32 20.5 50t54.5 18q33 0 62.5 -26t58.5 -86l18 5l-3 113q-20 8 -54.5 13.5t-63.5 5.5q-36 0 -65 -11t-49.5 -29.5
t-31.5 -44t-11 -55.5q0 -29 11 -50t28.5 -36t40 -26t45.5 -21q21 -9 40.5 -17.5t35 -20t24.5 -26t9 -34.5q0 -40 -23.5 -62t-63.5 -22q-41 0 -74.5 30.5t-58.5 99.5l-21 -2v-126q35 -15 67 -21t70 -6q37 0 68.5 10.5t54.5 30.5t36.5 48t13.5 63z" />
    <glyph glyph-name="Ydieresis" unicode="&#x178;" horiz-adv-x="633" 
d="M439 742q23 0 38.5 16.5t15.5 37.5t-13.5 35t-34.5 14q-23 0 -38.5 -16.5t-15.5 -37.5t13.5 -35t34.5 -14zM269 742q23 0 38.5 16.5t15.5 37.5t-13.5 35t-34.5 14q-23 0 -38.5 -16.5t-15.5 -37.5t13.5 -35t34.5 -14zM566 593l79 27v17h-205v-17l73 -24l-158 -279
l-151 285l86 18v17h-292v-17l88 -23l192 -322v-240l-102 -18v-17h304v17l-102 18v257z" />
    <glyph glyph-name="Zcaron" unicode="&#x17d;" horiz-adv-x="638" 
d="M333 791l-113 100l-12 -10l114 -177h15l120 177l-12 10zM594 195l-9 4l-87 -112q-11 -14 -19.5 -24t-19 -16.5t-25 -9.5t-36.5 -3h-225l408 593l-4 10h-483l-24 -171l9 -7l77 85q13 15 23.5 26t22 18.5t27 11.5t38.5 4h179l-408 -594l4 -10h526z" />
    <glyph glyph-name="zcaron" unicode="&#x17e;" horiz-adv-x="464" 
d="M228 605l-113 100l-12 -10l114 -177h15l120 177l-12 10zM429 441l-3 7h-362l-12 -134l11 -6l97 112h150l-282 -413l3 -7h380l16 134l-12 6l-105 -112h-164z" />
    <glyph glyph-name="florin" unicode="&#x192;" horiz-adv-x="485" 
d="M484 568q0 28 -26 44t-64 16q-29 0 -61 -10.5t-59 -32.5q-24 -19 -41 -39.5t-29 -46t-20.5 -57t-15.5 -72.5l-2 -21l-107 -29l-3 -17h103l-42 -296q-8 -58 -18 -95t-29 -62q-15 32 -39.5 48t-48.5 16q-25 0 -39 -13.5t-14 -33.5q0 -22 20.5 -37t59.5 -15q28 0 58 12
t52 35q21 22 36 44.5t26 51.5t18.5 68t15.5 94l27 183h112l7 40h-113l4 30q7 52 16 90t20.5 65t25.5 45t31 30q11 -42 36.5 -62t51.5 -20q23 0 37 14t14 33z" />
    <glyph glyph-name="circumflex" unicode="&#x2c6;" horiz-adv-x="299" 
d="M150 604l112 -99l12 10l-113 177h-15l-121 -177l12 -10z" />
    <glyph glyph-name="caron" unicode="&#x2c7;" horiz-adv-x="299" 
d="M150 605l-113 100l-12 -10l114 -177h15l120 177l-12 10z" />
    <glyph glyph-name="breve" unicode="&#x2d8;" horiz-adv-x="336" 
d="M169 575q-43 0 -70.5 19.5t-46.5 58.5l-17 -7q8 -61 41 -95t93 -34t92 34t40 95l-17 7q-19 -39 -45.5 -58.5t-69.5 -19.5z" />
    <glyph glyph-name="dotaccent" unicode="&#x2d9;" horiz-adv-x="192" 
d="M147 610q0 21 -13.5 35t-34.5 14q-23 0 -38.5 -16.5t-15.5 -37.5t13.5 -35t34.5 -14q23 0 38.5 16.5t15.5 37.5z" />
    <glyph glyph-name="ring" unicode="&#x2da;" horiz-adv-x="259" 
d="M221 592q0 37 -23.5 63t-65.5 26q-21 0 -38.5 -7.5t-29.5 -20t-19 -28.5t-7 -33q0 -37 23.5 -63t65.5 -26q21 0 38.5 7.5t29.5 20t19 28.5t7 33zM176 592q0 -72 -46 -72q-22 0 -35 18t-13 53q0 72 46 72q48 0 48 -71z" />
    <glyph glyph-name="ogonek" unicode="&#x2db;" horiz-adv-x="269" 
d="M205 35l-8 10q-42 -25 -77 -49t-60 -48t-38.5 -49.5t-13.5 -52.5q0 -42 27.5 -70.5t75.5 -28.5q33 0 54.5 13.5t33.5 33.5l-8 8q-7 -6 -20.5 -10.5t-27.5 -4.5q-32 0 -52 17.5t-20 52.5q0 49 37.5 90.5t96.5 87.5z" />
    <glyph glyph-name="tilde" unicode="&#x2dc;" horiz-adv-x="331" 
d="M25 532l13 -5q10 23 22.5 32t27.5 9t31 -5.5t33.5 -12t36 -12t37.5 -5.5q30 0 51 21.5t29 77.5l-13 6q-9 -23 -22 -32.5t-28 -9.5q-14 0 -30.5 5.5t-33.5 12t-35.5 12t-37.5 5.5q-30 0 -51 -21.5t-30 -77.5z" />
    <glyph glyph-name="hungarumlaut" unicode="&#x2dd;" horiz-adv-x="320" 
d="M286 639q11 17 9.5 33t-15.5 25q-14 8 -29 2.5t-25 -21.5q-7 -10 -14.5 -27.5t-16.5 -39t-19 -45.5t-20 -47l12 -8q16 19 34.5 37.5t35 35.5t29.5 31t19 24zM158 640q10 17 8 32.5t-16 24.5q-14 8 -29.5 1.5t-24.5 -22.5q-6 -10 -13 -28t-14.5 -39.5t-16 -45t-17.5 -44.5
l13 -8q15 18 31.5 36.5t32 36t28 32t18.5 24.5z" />
    <glyph glyph-name="Delta" unicode="&#x394;" 
d="M25 -200h450v1000h-450v-1000z" />
    <glyph glyph-name="Omega" unicode="&#x3a9;" horiz-adv-x="597" 
d="M483 443v76q0 87 23.5 130.5t72.5 60.5q15 -47 37.5 -67t47.5 -20q23 0 36 13.5t13 35.5q0 12 -5.5 24.5t-17 22.5t-29.5 16t-44 6q-35 0 -67 -11t-58 -31q-12 -9 -22.5 -18t-19.5 -20q0 13 -5.5 27t-18 26t-33 19.5t-50.5 7.5q-34 0 -66 -10.5t-58 -27.5
q-54 -34 -79 -84.5t-25 -119.5v-53l-91 -26v-18h91v-371l-66 -17v-14h220v14l-70 17v371h200v-371l-66 -17v-14h225v14l-75 17v371h125v41h-125zM199 443v67q0 48 7.5 83t22.5 59t37.5 38t53.5 22q6 -31 17.5 -51t26 -31.5t30 -13.5t29.5 3q-24 -51 -24 -123v-53h-200z" />
    <glyph glyph-name="pi" unicode="&#x3c0;" horiz-adv-x="734" 
d="M701 318q0 69 -26.5 129.5t-71.5 106t-106 71.5t-130 26t-130 -26t-106 -71.5t-71.5 -106t-26.5 -129.5t26.5 -130t71.5 -106.5t106 -71.5t130 -26t130 26t106 71.5t71.5 106.5t26.5 130zM676 318q0 -65 -24 -121.5t-66 -98.5t-98.5 -66.5t-120.5 -24.5t-120 24.5
t-98 66.5t-66.5 98.5t-24.5 121.5q0 64 24.5 120.5t66.5 98.5t98 66.5t120 24.5t120.5 -24.5t98.5 -66.5t66 -98.5t24 -120.5zM520 390q0 39 -29.5 67.5t-94.5 28.5h-165v-15l50 -11v-284l-50 -11v-16h168v16l-52 11v116q13 -2 27.5 -3t27.5 -1q29 0 51 9t37 23.5t22.5 32.5
t7.5 37zM449 390q0 -78 -68 -80h-19q-12 0 -15 1v154q4 1 16 1h18q68 -2 68 -76z" />
    <glyph glyph-name="endash" unicode="&#x2013;" horiz-adv-x="540" 
d="M490 230v33h-440v-33h440z" />
    <glyph glyph-name="emdash" unicode="&#x2014;" horiz-adv-x="790" 
d="M740 230v33h-690v-33h690z" />
    <glyph glyph-name="quoteleft" unicode="&#x2018;" horiz-adv-x="220" 
d="M173 492q0 22 -13.5 36.5t-35.5 14.5q-10 0 -15 -2l-17 -4l-2 1q7 22 24 48t59 61l-10 12q-61 -30 -90.5 -68.5t-29.5 -76.5q0 -37 19 -60t51 -23q26 0 43 18t17 43z" />
    <glyph glyph-name="quoteright" unicode="&#x2019;" horiz-adv-x="220" 
d="M176 569q0 37 -18.5 60t-50.5 23q-26 0 -43 -18t-17 -43q0 -22 13.5 -36.5t34.5 -14.5q10 0 15 2l17 4l2 -1q-6 -22 -23.5 -47.5t-59.5 -61.5l10 -12q62 31 91 69t29 76z" />
    <glyph glyph-name="quotesinglbase" unicode="&#x201a;" horiz-adv-x="220" 
d="M176 21q0 37 -18.5 60t-50.5 23q-26 0 -43 -18t-17 -43q0 -22 13.5 -36.5t34.5 -14.5q10 0 15 2l17 4l2 -1q-6 -22 -23.5 -47.5t-59.5 -61.5l10 -12q62 31 91 69t29 76z" />
    <glyph glyph-name="quotedblleft" unicode="&#x201c;" horiz-adv-x="371" 
d="M324 501q0 20 -13 34t-33 14h-7q-3 0 -7 -2l-16 -4l-2 1q6 21 22.5 45.5t56.5 58.5l-10 11q-58 -29 -86 -65.5t-28 -72.5q0 -35 17.5 -57t48.5 -22q24 0 40.5 17.5t16.5 41.5zM166 501q0 20 -13 34t-33 14q-10 0 -15 -2l-16 -4l-1 1q5 21 21.5 45.5t56.5 58.5l-9 11
q-58 -29 -86 -65.5t-28 -72.5q0 -35 17.5 -57t48.5 -22q24 0 40.5 17.5t16.5 41.5z" />
    <glyph glyph-name="quotedblright" unicode="&#x201d;" horiz-adv-x="372" 
d="M329 574q0 35 -17.5 56.5t-48.5 21.5q-24 0 -40.5 -17.5t-16.5 -40.5q0 -20 13 -34.5t33 -14.5q4 0 14 2l16 5l2 -1q-6 -21 -22.5 -45.5t-56.5 -58.5l10 -12q58 29 86 66t28 73zM170 574q0 35 -17.5 56.5t-47.5 21.5q-25 0 -41.5 -17.5t-16.5 -40.5q0 -20 13 -34.5
t33 -14.5q5 0 15 2l16 5l2 -1q-6 -21 -22.5 -45.5t-56.5 -58.5l9 -12q59 29 86.5 66t27.5 73z" />
    <glyph glyph-name="quotedblbase" unicode="&#x201e;" horiz-adv-x="372" 
d="M329 26q0 35 -17.5 56.5t-48.5 21.5q-24 0 -40.5 -17.5t-16.5 -40.5q0 -20 13 -34.5t33 -14.5q4 0 14 2l16 5l2 -1q-6 -21 -22.5 -45.5t-56.5 -58.5l10 -12q58 29 86 66t28 73zM170 26q0 35 -17.5 56.5t-47.5 21.5q-25 0 -41.5 -17.5t-16.5 -40.5q0 -20 13 -34.5
t33 -14.5q5 0 15 2l16 5l2 -1q-6 -21 -22.5 -45.5t-56.5 -58.5l9 -12q59 29 86.5 66t27.5 73z" />
    <glyph glyph-name="dagger" unicode="&#x2020;" horiz-adv-x="454" 
d="M424 400v35l-182 -4l4 239h-38l4 -239l-182 4v-35l182 4l-4 -487h38l-4 487z" />
    <glyph glyph-name="daggerdbl" unicode="&#x2021;" horiz-adv-x="454" 
d="M424 152v35l-182 -4v221l182 -4v35l-182 -4l4 239h-38l4 -239l-182 4v-35l182 4v-221l-182 4v-35l182 4l-4 -239h38l-4 239z" />
    <glyph glyph-name="bullet" unicode="&#x2022;" horiz-adv-x="470" 
d="M369 319q0 28 -10.5 52.5t-29 42.5t-43 28.5t-52.5 10.5t-52.5 -10.5t-42.5 -28.5t-28.5 -42.5t-10.5 -52.5t10.5 -52.5t28.5 -43t42.5 -29t52.5 -10.5t52.5 10.5t43 29t29 43t10.5 52.5z" />
    <glyph glyph-name="ellipsis" unicode="&#x2026;" horiz-adv-x="633" 
d="M588 44q0 25 -17.5 42.5t-42.5 17.5q-26 0 -43.5 -17.5t-17.5 -42.5t17.5 -42.5t43.5 -17.5q25 0 42.5 17.5t17.5 42.5zM377 44q0 25 -17.5 42.5t-42.5 17.5q-26 0 -43.5 -17.5t-17.5 -42.5t17.5 -42.5t43.5 -17.5q25 0 42.5 17.5t17.5 42.5zM166 44q0 25 -17.5 42.5
t-42.5 17.5q-26 0 -43.5 -17.5t-17.5 -42.5t17.5 -42.5t43.5 -17.5q25 0 42.5 17.5t17.5 42.5z" />
    <glyph glyph-name="perthousand" unicode="&#x2030;" horiz-adv-x="734" 
d="M701 319q0 69 -26.5 129.5t-71.5 106t-106 71.5t-130 26t-130 -26t-106 -71.5t-71.5 -106t-26.5 -129.5t26.5 -130t71.5 -106.5t106 -71.5t130 -26t130 26t106 71.5t71.5 106.5t26.5 130zM676 319q0 -65 -24 -121.5t-66 -98.5t-98.5 -66.5t-120.5 -24.5t-120 24.5
t-98 66.5t-66.5 98.5t-24.5 121.5q0 64 24.5 120.5t66.5 98.5t98 66.5t120 24.5t120.5 -24.5t98.5 -66.5t66 -98.5t24 -120.5zM513 403q0 35 -30 59.5t-89 24.5h-176v-15l49 -11v-284l-49 -11v-16h164v16l-49 11v125h13q22 0 35.5 -6t24.5 -31l25 -57q7 -16 12.5 -27t13 -18
t18 -10t25.5 -3h63v16q-13 2 -21 5.5t-18 12.5q-11 11 -19.5 27.5t-19.5 41.5q-8 22 -24.5 38.5t-45.5 22.5v2q50 9 74 32.5t24 54.5zM442 396q0 -37 -21.5 -55t-52.5 -19l-35 -1v145q4 1 16 1h19q31 0 52.5 -17.5t21.5 -53.5z" />
    <glyph glyph-name="guilsinglleft" unicode="&#x2039;" horiz-adv-x="294" 
d="M125 224l119 178l-18 16l-196 -189v-10l196 -189l18 15z" />
    <glyph glyph-name="guilsinglright" unicode="&#x203a;" horiz-adv-x="294" 
d="M264 229l-196 189l-18 -16l119 -178l-119 -179l18 -15l196 189v10z" />
    <glyph glyph-name="trademark" unicode="&#x2122;" horiz-adv-x="510" 
d="M457 619l26 9v9h-82l-11 -31l-34 -93h-3l-36 93l-12 31h-80v-9l22 -10v-139l-22 -11v-9h65v9l-23 11v135h4l62 -155h20l60 155h3v-137l-24 -9v-9h91v9l-26 9v142zM206 575l-9 62h-165l-9 -62l7 -1l21 27q9 12 14.5 16t16.5 4h13v-144l-27 -9v-9h94v9l-26 9v144h11
q11 0 16.5 -4t14.5 -16l21 -27z" />
    <glyph glyph-name="partialdiff" unicode="&#x2202;" 
d="M25 -200h450v1000h-450v-1000z" />
    <glyph glyph-name="product" unicode="&#x220f;" 
d="M25 -200h450v1000h-450v-1000z" />
    <glyph glyph-name="summation" unicode="&#x2211;" 
d="M25 -200h450v1000h-450v-1000z" />
    <glyph glyph-name="minus" unicode="&#x2212;" horiz-adv-x="505" 
d="M464 283v47h-423v-47h423z" />
    <glyph glyph-name="fraction" unicode="&#x2215;" horiz-adv-x="536" 
d="M515 622l-29 21l-230 -329l-235 -326l29 -20l230 329z" />
    <glyph glyph-name="radical" unicode="&#x221a;" horiz-adv-x="854" 
d="M768 31v708l-4 3l-63 -16q-13 7 -30.5 11t-40.5 4q-34 0 -65.5 -10.5t-57.5 -25.5q-35 -21 -57 -49q0 13 -4.5 28t-16 28t-32.5 21t-54 8q-34 0 -66 -10.5t-58 -27.5q-54 -34 -79 -84.5t-25 -119.5v-53l-91 -26v-18h91v-371l-66 -17v-14h220v14l-70 17v371h200v-371
l-66 -17v-14h218v14l-67 17v371h199v-371l-70 -17v-14h221v14zM484 443v63q0 51 8 87t23.5 60t40 38t57.5 21q7 -47 27 -70.5t43 -28.5v-170h-199zM199 443v67q0 48 7.5 83t22.5 59t37.5 38t53.5 22q6 -31 17.5 -51t26 -31.5t30 -13.5t29.5 3q-24 -51 -24 -123v-53h-200z
" />
    <glyph glyph-name="infinity" unicode="&#x221e;" 
d="M25 -200h450v1000h-450v-1000z" />
    <glyph glyph-name="integral" unicode="&#x222b;" 
d="M25 -200h450v1000h-450v-1000z" />
    <glyph glyph-name="approxequal" unicode="&#x2248;" horiz-adv-x="859" 
d="M484 443v63q0 51 8 87t23.5 60t40 38t57.5 21q8 -52 32 -76t50 -24q22 0 34.5 13.5t12.5 35.5q0 12 -5.5 26t-18.5 26t-34.5 20t-53.5 8q-34 0 -65.5 -10.5t-57.5 -25.5q-35 -21 -57 -49q0 13 -4.5 28t-16 28t-32.5 21t-54 8q-34 0 -66 -10.5t-58 -27.5
q-54 -34 -79 -84.5t-25 -119.5v-53l-91 -26v-18h91v-371l-66 -17v-14h220v14l-70 17v371h200v-371l-66 -17v-14h218v14l-67 17v371h199v-371l-66 -17v-14h217v14l-66 17v432l-4 2l-94 -22h-186zM199 443v67q0 48 7.5 83t22.5 59t37.5 38t53.5 22q6 -31 17.5 -51t26 -31.5
t30 -13.5t29.5 3q-24 -51 -24 -123v-53h-200z" />
    <glyph glyph-name="notequal" unicode="&#x2260;" 
d="M25 -200h450v1000h-450v-1000z" />
    <glyph glyph-name="lessequal" unicode="&#x2264;" 
d="M25 -200h450v1000h-450v-1000z" />
    <glyph glyph-name="greaterequal" unicode="&#x2265;" 
d="M25 -200h450v1000h-450v-1000z" />
    <glyph glyph-name="lozenge" unicode="&#x25ca;" horiz-adv-x="490" 
d="M437 619l26 9v9h-82l-11 -31l-34 -93h-3l-36 93l-12 31h-80v-9l22 -10v-139l-22 -11v-9h65v9l-23 11v135h4l62 -155h20l60 155h3v-137l-24 -9v-9h91v9l-26 9v142zM176 514q0 22 -15 32.5t-38 18.5q-24 8 -35.5 15.5t-11.5 21.5q0 13 6.5 20t17.5 7q25 0 58 -48l10 1
l-4 61h-9l-8 -9q-8 3 -20 5t-23 2q-25 0 -44 -14.5t-19 -40.5q0 -24 16 -36t38 -19q23 -8 35 -15.5t12 -21.5q0 -13 -8.5 -20t-22.5 -7q-31 0 -66 53l-9 -1l1 -68h9l9 11q9 -4 25 -6.5t29 -2.5q26 0 46.5 15.5t20.5 45.5z" />
    <glyph glyph-name="apple" unicode="&#xf8ff;" horiz-adv-x="694" 
d="M644 -200v921h-101l-29 79h-334l-30 -79h-100v-554q14 0 23 -9.5t9 -22.5q0 -14 -9 -23t-23 -9v-303h207l8 14h163l8 -14h208zM400 563h58v-14h-43v-66h38v-14h-38v-78h-15v172zM184 563h15v-79h47v79h15v-172h-15v79h-47v-79h-15v172zM460 394v16q4 -2 10 -4t10 -2
q16 0 16 22v137h16v-137q0 -36 -31 -36q-5 0 -11.5 1t-9.5 3zM349 438q2 7 4.5 15t4.5 15l13 -3q-2 -11 -5.5 -20.5t-7.5 -18.5l16 -30l-11 -8l-12 24h-1q-4 -9 -10.5 -16.5t-16.5 -7.5q-14 0 -22.5 11t-8.5 28q0 27 23 45q-6 11 -10 19.5t-4 19.5t7.5 21t20.5 10
q14 0 20.5 -10t6.5 -21q0 -12 -6.5 -22.5t-16.5 -19.5zM523 323h8v-24l21 24h10l-18 -20l19 -26h-9l-16 20l-7 -7v-13h-8v46zM488 292h-12v-15h-8v46h21q8 0 12 -4.5t4 -9.5q0 -12 -10 -15l12 -17h-9zM426 276q-11 0 -17 7t-6 17q0 9 6 16.5t17 7.5t17.5 -7.5t6.5 -16.5
q0 -10 -6.5 -17t-17.5 -7zM370 301l13 22h9l-18 -29v-17h-8v17l-18 29h9zM193 323h33v-7h-25v-12h22v-7h-22v-13h25v-7h-33v46zM132 323h7l25 -32v32h8v-46h-7l-25 32v-32h-8v46zM241 323h8l10 -35h1l11 35h8l10 -35h1l10 35h8l-14 -47h-8l-11 34h-1l-10 -34h-8zM327 479
q15 16 15 32q0 8 -3.5 13.5t-9.5 5.5t-10 -5.5t-4 -13.5t3.5 -15zM342 423l-20 39q-15 -15 -15 -33q0 -11 4.5 -19t12.5 -8q5 0 10.5 6.5t7.5 14.5zM488 299q9 0 9 9q0 8 -10 8h-11v-17h12zM426 283q7 0 11.5 5t4.5 12q0 6 -4.5 11.5t-11.5 5.5t-11 -5.5t-4 -11.5
q0 -7 4 -12t11 -5z" />
    <glyph glyph-name="fi" unicode="&#xfb01;" horiz-adv-x="575" 
d="M200 402h200v-371l-66 -17v-14h216v14l-66 17v432l-4 2l-94 -22h-186v63q0 51 8 87t24 60t40 38t57 21q8 -52 32 -76t50 -24q22 0 35 13.5t13 35.5q0 12 -5.5 26t-18.5 26t-34.5 20t-53.5 8q-34 0 -66 -10.5t-58 -25.5q-57 -35 -82.5 -85.5t-25.5 -119.5v-54l-90 -26v-18
h90v-371l-66 -17v-14h218v14l-67 17v371z" />
    <glyph glyph-name="fl" unicode="&#xfb02;" horiz-adv-x="570" 
d="M484 31v708l-4 3l-63 -16q-12 7 -29.5 11t-40.5 4q-34 0 -66 -10.5t-58 -25.5q-57 -35 -82.5 -85.5t-25.5 -119.5v-54l-90 -26v-18h90v-371l-66 -17v-14h218v14l-67 17v371h200v-371l-70 -17v-14h220v14zM400 443h-200v63q0 51 8 87t24 60t40 38t57 21q8 -47 27.5 -70.5
t43.5 -28.5v-170z" />
    <glyph glyph-name="NUL" horiz-adv-x="0" 
 />
    </font>
</defs>
</svg>
